%TF.GenerationSoftware,KiCad,Pcbnew,8.0.4*%
%TF.CreationDate,2024-08-22T00:59:55+02:00*%
%TF.ProjectId,feed-selector-v2,66656564-2d73-4656-9c65-63746f722d76,rev?*%
%TF.SameCoordinates,Original*%
%TF.FileFunction,Copper,L2,Bot*%
%TF.FilePolarity,Positive*%
%FSLAX46Y46*%
G04 Gerber Fmt 4.6, Leading zero omitted, Abs format (unit mm)*
G04 Created by KiCad (PCBNEW 8.0.4) date 2024-08-22 00:59:55*
%MOMM*%
%LPD*%
G01*
G04 APERTURE LIST*
G04 Aperture macros list*
%AMRoundRect*
0 Rectangle with rounded corners*
0 $1 Rounding radius*
0 $2 $3 $4 $5 $6 $7 $8 $9 X,Y pos of 4 corners*
0 Add a 4 corners polygon primitive as box body*
4,1,4,$2,$3,$4,$5,$6,$7,$8,$9,$2,$3,0*
0 Add four circle primitives for the rounded corners*
1,1,$1+$1,$2,$3*
1,1,$1+$1,$4,$5*
1,1,$1+$1,$6,$7*
1,1,$1+$1,$8,$9*
0 Add four rect primitives between the rounded corners*
20,1,$1+$1,$2,$3,$4,$5,0*
20,1,$1+$1,$4,$5,$6,$7,0*
20,1,$1+$1,$6,$7,$8,$9,0*
20,1,$1+$1,$8,$9,$2,$3,0*%
G04 Aperture macros list end*
%TA.AperFunction,ComponentPad*%
%ADD10O,1.200000X2.000000*%
%TD*%
%TA.AperFunction,ComponentPad*%
%ADD11R,1.200000X1.200000*%
%TD*%
%TA.AperFunction,ComponentPad*%
%ADD12C,1.200000*%
%TD*%
%TA.AperFunction,ComponentPad*%
%ADD13C,1.600000*%
%TD*%
%TA.AperFunction,ComponentPad*%
%ADD14O,1.600000X1.600000*%
%TD*%
%TA.AperFunction,ComponentPad*%
%ADD15R,3.000000X3.000000*%
%TD*%
%TA.AperFunction,ComponentPad*%
%ADD16C,3.000000*%
%TD*%
%TA.AperFunction,ComponentPad*%
%ADD17C,2.000000*%
%TD*%
%TA.AperFunction,ComponentPad*%
%ADD18R,1.800000X1.800000*%
%TD*%
%TA.AperFunction,ComponentPad*%
%ADD19C,1.800000*%
%TD*%
%TA.AperFunction,ComponentPad*%
%ADD20RoundRect,0.250000X-0.600000X-0.725000X0.600000X-0.725000X0.600000X0.725000X-0.600000X0.725000X0*%
%TD*%
%TA.AperFunction,ComponentPad*%
%ADD21O,1.700000X1.950000*%
%TD*%
%TA.AperFunction,ViaPad*%
%ADD22C,0.600000*%
%TD*%
%TA.AperFunction,ViaPad*%
%ADD23C,4.000000*%
%TD*%
%TA.AperFunction,ViaPad*%
%ADD24C,2.000000*%
%TD*%
%TA.AperFunction,Conductor*%
%ADD25C,0.500000*%
%TD*%
%TA.AperFunction,Conductor*%
%ADD26C,0.800000*%
%TD*%
%TA.AperFunction,Conductor*%
%ADD27C,1.200000*%
%TD*%
G04 APERTURE END LIST*
D10*
%TO.P,PRO_MINI1,1,TXO*%
%TO.N,Net-(J4-Pin_1)*%
X41910000Y-59436000D03*
%TO.P,PRO_MINI1,2,RXI*%
%TO.N,Net-(J4-Pin_3)*%
X44450000Y-59436000D03*
%TO.P,PRO_MINI1,3,RESET*%
%TO.N,unconnected-(PRO_MINI1-RESET-Pad3)*%
X46990000Y-59436000D03*
%TO.P,PRO_MINI1,4,GND*%
%TO.N,GND*%
X49530000Y-59436000D03*
%TO.P,PRO_MINI1,5,D2*%
%TO.N,Net-(D1-K)*%
X52070000Y-59436000D03*
%TO.P,PRO_MINI1,6,D3*%
%TO.N,Net-(PRO_MINI1-D3)*%
X54610000Y-59436000D03*
%TO.P,PRO_MINI1,7,D4*%
%TO.N,Net-(J1-Pin_4)*%
X57150000Y-59436000D03*
%TO.P,PRO_MINI1,8,D5*%
%TO.N,Net-(J1-Pin_2)*%
X59690000Y-59436000D03*
%TO.P,PRO_MINI1,9,D6*%
%TO.N,Net-(PRO_MINI1-D6)*%
X62230000Y-59436000D03*
%TO.P,PRO_MINI1,10,D7*%
%TO.N,unconnected-(PRO_MINI1-D7-Pad10)*%
X64770000Y-59436000D03*
%TO.P,PRO_MINI1,11,D8*%
%TO.N,unconnected-(PRO_MINI1-D8-Pad11)*%
X67310000Y-59436000D03*
%TO.P,PRO_MINI1,12,D9*%
%TO.N,unconnected-(PRO_MINI1-D9-Pad12)*%
X69850000Y-59436000D03*
%TO.P,PRO_MINI1,13,SS*%
%TO.N,Net-(PRO_MINI1-D10)*%
X69850000Y-44196000D03*
%TO.P,PRO_MINI1,14,MOSI*%
%TO.N,Net-(PRO_MINI1-D11)*%
X67310000Y-44196000D03*
%TO.P,PRO_MINI1,15,MISO*%
%TO.N,Net-(PRO_MINI1-D12)*%
X64770000Y-44196000D03*
%TO.P,PRO_MINI1,16,SCK*%
%TO.N,Net-(PRO_MINI1-D13)*%
X62230000Y-44196000D03*
%TO.P,PRO_MINI1,17,A0*%
%TO.N,Net-(J3-Pin_2)*%
X59690000Y-44196000D03*
%TO.P,PRO_MINI1,18,A1*%
%TO.N,unconnected-(PRO_MINI1-A1-Pad18)*%
X57150000Y-44196000D03*
%TO.P,PRO_MINI1,19,A2*%
%TO.N,unconnected-(PRO_MINI1-A2-Pad19)*%
X54610000Y-44196000D03*
%TO.P,PRO_MINI1,20,A3*%
%TO.N,unconnected-(PRO_MINI1-A3-Pad20)*%
X52070000Y-44196000D03*
%TO.P,PRO_MINI1,21,VCC*%
%TO.N,+3.3V*%
X49530000Y-44196000D03*
%TO.P,PRO_MINI1,22,RESET*%
%TO.N,unconnected-(PRO_MINI1-RESET-Pad22)*%
X46990000Y-44196000D03*
%TO.P,PRO_MINI1,23,GND*%
%TO.N,unconnected-(PRO_MINI1-GND-Pad23)*%
X44450000Y-44196000D03*
%TO.P,PRO_MINI1,24,RAW*%
%TO.N,+10V*%
X41910000Y-44196000D03*
%TD*%
D11*
%TO.P,C1,1*%
%TO.N,+10V*%
X76200000Y-54356000D03*
D12*
%TO.P,C1,2*%
%TO.N,GND*%
X78200000Y-54356000D03*
%TD*%
D13*
%TO.P,R1,1*%
%TO.N,Net-(D1-A)*%
X39370000Y-44414000D03*
D14*
%TO.P,R1,2*%
%TO.N,+3.3V*%
X31750000Y-44414000D03*
%TD*%
D15*
%TO.P,J1,1,Pin_1*%
%TO.N,GND*%
X74676000Y-66548000D03*
D16*
%TO.P,J1,2,Pin_2*%
%TO.N,Net-(J1-Pin_2)*%
X69596000Y-66548000D03*
%TO.P,J1,3,Pin_3*%
%TO.N,GND*%
X64516000Y-66548000D03*
%TO.P,J1,4,Pin_4*%
%TO.N,Net-(J1-Pin_4)*%
X59436000Y-66548000D03*
%TD*%
D15*
%TO.P,J3,1,Pin_1*%
%TO.N,GND*%
X53340000Y-66548000D03*
D16*
%TO.P,J3,2,Pin_2*%
%TO.N,Net-(J3-Pin_2)*%
X48260000Y-66548000D03*
%TO.P,J3,3,Pin_3*%
%TO.N,+3.3V*%
X43180000Y-66548000D03*
%TD*%
D17*
%TO.P,SW1,1,1*%
%TO.N,GND*%
X89102000Y-68798000D03*
X82602000Y-68798000D03*
%TO.P,SW1,2,2*%
%TO.N,Net-(PRO_MINI1-D6)*%
X89102000Y-64298000D03*
X82602000Y-64298000D03*
%TD*%
D15*
%TO.P,J2,1,Pin_1*%
%TO.N,+10V*%
X77920000Y-46736000D03*
D16*
%TO.P,J2,2,Pin_2*%
%TO.N,VOUT*%
X83000000Y-46736000D03*
%TO.P,J2,3,Pin_3*%
%TO.N,GND*%
X88080000Y-46736000D03*
%TD*%
D18*
%TO.P,D1,1,K*%
%TO.N,Net-(D1-K)*%
X36835000Y-57912000D03*
D19*
%TO.P,D1,2,A*%
%TO.N,Net-(D1-A)*%
X34295000Y-57912000D03*
%TD*%
D20*
%TO.P,J4,1,Pin_1*%
%TO.N,Net-(J4-Pin_1)*%
X32044000Y-66531000D03*
D21*
%TO.P,J4,2,Pin_2*%
%TO.N,GND*%
X34544000Y-66531000D03*
%TO.P,J4,3,Pin_3*%
%TO.N,Net-(J4-Pin_3)*%
X37044000Y-66531000D03*
%TD*%
D13*
%TO.P,C3,1*%
%TO.N,GND*%
X32004000Y-49276000D03*
%TO.P,C3,2*%
%TO.N,+3.3V*%
X34504000Y-49276000D03*
%TD*%
D22*
%TO.N,Net-(PRO_MINI1-D11)*%
X57150000Y-48768000D03*
%TO.N,Net-(PRO_MINI1-D10)*%
X58420000Y-51181000D03*
%TO.N,Net-(PRO_MINI1-D13)*%
X58166000Y-48768000D03*
%TO.N,Net-(PRO_MINI1-D12)*%
X56261000Y-48768000D03*
%TO.N,GND*%
X55880000Y-57912000D03*
%TO.N,+3.3V*%
X60706000Y-50038000D03*
%TO.N,GND*%
X61976000Y-55880000D03*
%TO.N,+10V*%
X61976000Y-54356000D03*
%TO.N,VOUT*%
X61976000Y-52832000D03*
D23*
%TO.N,GND*%
X27940000Y-43180000D03*
X27940000Y-68072000D03*
X92964000Y-68072000D03*
X92964000Y-43180000D03*
D24*
%TO.N,Net-(D1-K)*%
X42164000Y-56896000D03*
X51816000Y-56896000D03*
%TO.N,+10V*%
X42672000Y-47244000D03*
X72136000Y-47244000D03*
%TD*%
D25*
%TO.N,Net-(PRO_MINI1-D11)*%
X62623503Y-42846000D02*
X61836497Y-42846000D01*
X65960000Y-45546000D02*
X64312000Y-45546000D01*
X57983000Y-47554000D02*
X57150000Y-48387000D01*
X64312000Y-45546000D02*
X63180000Y-44414000D01*
X61836497Y-42846000D02*
X61280000Y-43402497D01*
X63180000Y-44414000D02*
X63180000Y-43402497D01*
X63180000Y-43402497D02*
X62623503Y-42846000D01*
X67310000Y-44196000D02*
X65960000Y-45546000D01*
X61280000Y-43402497D02*
X61280000Y-45450528D01*
X59176528Y-47554000D02*
X57983000Y-47554000D01*
X61280000Y-45450528D02*
X59176528Y-47554000D01*
X57150000Y-48387000D02*
X57150000Y-48768000D01*
%TO.N,Net-(PRO_MINI1-D12)*%
X64770000Y-44143969D02*
X62872031Y-42246000D01*
X57186000Y-46954000D02*
X56261000Y-47879000D01*
X62872031Y-42246000D02*
X61587969Y-42246000D01*
X60680000Y-45202000D02*
X58928000Y-46954000D01*
X61587969Y-42246000D02*
X60680000Y-43153969D01*
X56261000Y-47879000D02*
X56261000Y-48768000D01*
X60680000Y-43153969D02*
X60680000Y-45202000D01*
X58928000Y-46954000D02*
X57186000Y-46954000D01*
D26*
%TO.N,Net-(J3-Pin_2)*%
X59690000Y-44196000D02*
X57785000Y-46101000D01*
X56539000Y-46101000D02*
X48260000Y-54380000D01*
X57785000Y-46101000D02*
X56539000Y-46101000D01*
X48260000Y-54380000D02*
X48260000Y-66548000D01*
D25*
%TO.N,Net-(PRO_MINI1-D10)*%
X58420000Y-51181000D02*
X61087000Y-51181000D01*
X61087000Y-51181000D02*
X64806000Y-47462000D01*
X64806000Y-47462000D02*
X67564000Y-47462000D01*
X67564000Y-47462000D02*
X69850000Y-45176000D01*
%TO.N,Net-(PRO_MINI1-D12)*%
X56254001Y-48768000D02*
X56246001Y-48776000D01*
X56261000Y-48768000D02*
X56254001Y-48768000D01*
%TO.N,GND*%
X55880000Y-57912000D02*
X55880000Y-60960000D01*
X55880000Y-60960000D02*
X53340000Y-63500000D01*
%TO.N,+3.3V*%
X65273472Y-46146000D02*
X67628751Y-46146000D01*
X61406872Y-50012600D02*
X65273472Y-46146000D01*
X67628751Y-46146000D02*
X68580000Y-45194751D01*
X60731400Y-50012600D02*
X61406872Y-50012600D01*
X68580000Y-45194751D02*
X68580000Y-42926000D01*
X68580000Y-42926000D02*
X67300000Y-41646000D01*
X67300000Y-41646000D02*
X52080000Y-41646000D01*
X52080000Y-41646000D02*
X49530000Y-44196000D01*
D27*
%TO.N,GND*%
X53340000Y-63500000D02*
X53340000Y-63246000D01*
X27940000Y-68072000D02*
X29972000Y-67417274D01*
D26*
%TO.N,Net-(PRO_MINI1-D6)*%
X89102000Y-64298000D02*
X82602000Y-64298000D01*
D27*
%TO.N,+3.3V*%
X34504000Y-49276000D02*
X34504000Y-47168000D01*
X34504000Y-47168000D02*
X31750000Y-44414000D01*
D26*
%TO.N,Net-(D1-K)*%
X41148000Y-56896000D02*
X42164000Y-56896000D01*
X36835000Y-57912000D02*
X40132000Y-57912000D01*
X40132000Y-57912000D02*
X41148000Y-56896000D01*
X52070000Y-57150000D02*
X51816000Y-56896000D01*
X52070000Y-59436000D02*
X52070000Y-57150000D01*
D27*
%TO.N,VOUT*%
X64964000Y-52832000D02*
X61976000Y-52832000D01*
%TO.N,+10V*%
X41910000Y-46482000D02*
X42672000Y-47244000D01*
X41910000Y-44196000D02*
X41910000Y-46482000D01*
X72136000Y-45212000D02*
X72136000Y-47244000D01*
X74852000Y-42496000D02*
X72136000Y-45212000D01*
X85580000Y-45780466D02*
X82295534Y-42496000D01*
X85580000Y-47832956D02*
X85580000Y-45780466D01*
X82295534Y-42496000D02*
X74852000Y-42496000D01*
X84076956Y-49336000D02*
X85580000Y-47832956D01*
%TO.N,GND*%
X88080000Y-46736000D02*
X88080000Y-51620000D01*
X88080000Y-51620000D02*
X85344000Y-54356000D01*
X85344000Y-54356000D02*
X78200000Y-54356000D01*
X77676000Y-55880000D02*
X61976000Y-55880000D01*
X78200000Y-55356000D02*
X77676000Y-55880000D01*
X78200000Y-54356000D02*
X78200000Y-55356000D01*
D25*
%TO.N,+3.3V*%
X45720000Y-57404000D02*
X45720000Y-61976000D01*
D27*
X45720000Y-48006000D02*
X45720000Y-57404000D01*
X49530000Y-44196000D02*
X45720000Y-48006000D01*
X45720000Y-64008000D02*
X45720000Y-61976000D01*
X43180000Y-66548000D02*
X45720000Y-64008000D01*
X31750000Y-44414000D02*
X34508000Y-41656000D01*
X48768000Y-41656000D02*
X49530000Y-42418000D01*
X34508000Y-41656000D02*
X48768000Y-41656000D01*
X49530000Y-42418000D02*
X49530000Y-44196000D01*
D26*
%TO.N,Net-(D1-A)*%
X39370000Y-44414000D02*
X39370000Y-52837000D01*
X39370000Y-52837000D02*
X34295000Y-57912000D01*
D25*
%TO.N,Net-(PRO_MINI1-D10)*%
X69850000Y-45176000D02*
X69850000Y-44196000D01*
D27*
%TO.N,GND*%
X34544000Y-66531000D02*
X34544000Y-66989274D01*
X29972000Y-67417274D02*
X29972000Y-51308000D01*
X34544000Y-66989274D02*
X33127274Y-68406000D01*
X33127274Y-68406000D02*
X30960726Y-68406000D01*
X30960726Y-68406000D02*
X27940000Y-68072000D01*
X29972000Y-51308000D02*
X32004000Y-49276000D01*
X53340000Y-66548000D02*
X53340000Y-63500000D01*
X53340000Y-63246000D02*
X49530000Y-59436000D01*
X53340000Y-66548000D02*
X50940000Y-68948000D01*
X50940000Y-68948000D02*
X36861126Y-68948000D01*
X36861126Y-68948000D02*
X34544000Y-66630874D01*
X34544000Y-66630874D02*
X34544000Y-66531000D01*
X64516000Y-66548000D02*
X62016000Y-69048000D01*
X62016000Y-69048000D02*
X55840000Y-69048000D01*
X55840000Y-69048000D02*
X53340000Y-66548000D01*
X74676000Y-66548000D02*
X72176000Y-69048000D01*
X72176000Y-69048000D02*
X67016000Y-69048000D01*
X67016000Y-69048000D02*
X64516000Y-66548000D01*
X82602000Y-68798000D02*
X76926000Y-68798000D01*
X76926000Y-68798000D02*
X74676000Y-66548000D01*
X89102000Y-68798000D02*
X82602000Y-68798000D01*
D25*
%TO.N,Net-(PRO_MINI1-D13)*%
X58196000Y-48756000D02*
X58586000Y-48366000D01*
X58586000Y-48366000D02*
X61356346Y-48366000D01*
X61356346Y-48366000D02*
X62230000Y-47492346D01*
X62230000Y-47492346D02*
X62230000Y-44196000D01*
D26*
%TO.N,Net-(J4-Pin_1)*%
X41910000Y-60703208D02*
X39114604Y-63498604D01*
X41910000Y-59436000D02*
X41910000Y-60703208D01*
X39114604Y-63498604D02*
X35076396Y-63498604D01*
X35076396Y-63498604D02*
X32044000Y-66531000D01*
%TO.N,Net-(J4-Pin_3)*%
X44450000Y-59436000D02*
X37355000Y-66531000D01*
X37355000Y-66531000D02*
X37044000Y-66531000D01*
%TO.N,Net-(PRO_MINI1-D6)*%
X62230000Y-59436000D02*
X63930000Y-57736000D01*
X63930000Y-57736000D02*
X76040000Y-57736000D01*
X76040000Y-57736000D02*
X82602000Y-64298000D01*
%TO.N,Net-(J1-Pin_2)*%
X69596000Y-66548000D02*
X64184000Y-61136000D01*
X61390000Y-61136000D02*
X59690000Y-59436000D01*
X64184000Y-61136000D02*
X61390000Y-61136000D01*
%TO.N,Net-(J1-Pin_4)*%
X59436000Y-66548000D02*
X57150000Y-64262000D01*
X57150000Y-64262000D02*
X57150000Y-59436000D01*
D27*
%TO.N,+10V*%
X76200000Y-54356000D02*
X61976000Y-54356000D01*
X77920000Y-46736000D02*
X76200000Y-48456000D01*
X76200000Y-48456000D02*
X76200000Y-54356000D01*
X77920000Y-46736000D02*
X80520000Y-49336000D01*
X80520000Y-49336000D02*
X84076956Y-49336000D01*
%TO.N,VOUT*%
X80400000Y-44136000D02*
X83000000Y-46736000D01*
X74676000Y-52324000D02*
X74676000Y-44780000D01*
X75320000Y-44136000D02*
X80400000Y-44136000D01*
X74676000Y-44780000D02*
X75320000Y-44136000D01*
X74168000Y-52832000D02*
X74676000Y-52324000D01*
X64964000Y-52832000D02*
X74168000Y-52832000D01*
%TD*%
%TA.AperFunction,Conductor*%
%TO.N,GND*%
G36*
X33374835Y-41020185D02*
G01*
X33420590Y-41072989D01*
X33430534Y-41142147D01*
X33401509Y-41205703D01*
X33395477Y-41212181D01*
X31486676Y-43120980D01*
X31431090Y-43153073D01*
X31303504Y-43187260D01*
X31097267Y-43283431D01*
X31097265Y-43283432D01*
X30910858Y-43413954D01*
X30749954Y-43574858D01*
X30619432Y-43761265D01*
X30619431Y-43761267D01*
X30523261Y-43967502D01*
X30523258Y-43967511D01*
X30464366Y-44187302D01*
X30464364Y-44187313D01*
X30444532Y-44413998D01*
X30444532Y-44414001D01*
X30464364Y-44640686D01*
X30464366Y-44640697D01*
X30523258Y-44860488D01*
X30523261Y-44860497D01*
X30619431Y-45066732D01*
X30619432Y-45066734D01*
X30749954Y-45253141D01*
X30910858Y-45414045D01*
X30910861Y-45414047D01*
X31097266Y-45544568D01*
X31303504Y-45640739D01*
X31303506Y-45640739D01*
X31303513Y-45640742D01*
X31389023Y-45663653D01*
X31431087Y-45674924D01*
X31486676Y-45707018D01*
X33367181Y-47587523D01*
X33400666Y-47648846D01*
X33403500Y-47675204D01*
X33403500Y-48641846D01*
X33383815Y-48708885D01*
X33331011Y-48754640D01*
X33261853Y-48764584D01*
X33198297Y-48735559D01*
X33167118Y-48694251D01*
X33134134Y-48623517D01*
X33134132Y-48623513D01*
X33083025Y-48550526D01*
X32404000Y-49229551D01*
X32404000Y-49223339D01*
X32376741Y-49121606D01*
X32324080Y-49030394D01*
X32249606Y-48955920D01*
X32158394Y-48903259D01*
X32056661Y-48876000D01*
X32050448Y-48876000D01*
X32729472Y-48196974D01*
X32656478Y-48145863D01*
X32450331Y-48049735D01*
X32450317Y-48049730D01*
X32230610Y-47990860D01*
X32230599Y-47990858D01*
X32004002Y-47971034D01*
X32003998Y-47971034D01*
X31777400Y-47990858D01*
X31777389Y-47990860D01*
X31557682Y-48049730D01*
X31557673Y-48049734D01*
X31351516Y-48145866D01*
X31351512Y-48145868D01*
X31278526Y-48196973D01*
X31278526Y-48196974D01*
X31957553Y-48876000D01*
X31951339Y-48876000D01*
X31849606Y-48903259D01*
X31758394Y-48955920D01*
X31683920Y-49030394D01*
X31631259Y-49121606D01*
X31604000Y-49223339D01*
X31604000Y-49229552D01*
X30924974Y-48550526D01*
X30924973Y-48550526D01*
X30873868Y-48623512D01*
X30873866Y-48623516D01*
X30777734Y-48829673D01*
X30777730Y-48829682D01*
X30718860Y-49049389D01*
X30718858Y-49049400D01*
X30699034Y-49275997D01*
X30699034Y-49276002D01*
X30718858Y-49502599D01*
X30718860Y-49502610D01*
X30777730Y-49722317D01*
X30777735Y-49722331D01*
X30873863Y-49928478D01*
X30924974Y-50001472D01*
X31604000Y-49322446D01*
X31604000Y-49328661D01*
X31631259Y-49430394D01*
X31683920Y-49521606D01*
X31758394Y-49596080D01*
X31849606Y-49648741D01*
X31951339Y-49676000D01*
X31957553Y-49676000D01*
X31278526Y-50355025D01*
X31351513Y-50406132D01*
X31351521Y-50406136D01*
X31557668Y-50502264D01*
X31557682Y-50502269D01*
X31777389Y-50561139D01*
X31777400Y-50561141D01*
X32003998Y-50580966D01*
X32004002Y-50580966D01*
X32230599Y-50561141D01*
X32230610Y-50561139D01*
X32450317Y-50502269D01*
X32450331Y-50502264D01*
X32656478Y-50406136D01*
X32729471Y-50355024D01*
X32050447Y-49676000D01*
X32056661Y-49676000D01*
X32158394Y-49648741D01*
X32249606Y-49596080D01*
X32324080Y-49521606D01*
X32376741Y-49430394D01*
X32404000Y-49328661D01*
X32404000Y-49322447D01*
X33083024Y-50001471D01*
X33134136Y-49928478D01*
X33230264Y-49722331D01*
X33230270Y-49722315D01*
X33238880Y-49690181D01*
X33275244Y-49630520D01*
X33338090Y-49599990D01*
X33407466Y-49608284D01*
X33461344Y-49652769D01*
X33470516Y-49670290D01*
X33470863Y-49670118D01*
X33473417Y-49675248D01*
X33473418Y-49675250D01*
X33478446Y-49685348D01*
X33478457Y-49685369D01*
X33482006Y-49694052D01*
X33482264Y-49693946D01*
X33484126Y-49698443D01*
X33484127Y-49698445D01*
X33520915Y-49770646D01*
X33521281Y-49771373D01*
X33564327Y-49857821D01*
X33564328Y-49857823D01*
X33618999Y-49930218D01*
X33620364Y-49932061D01*
X33664582Y-49992924D01*
X33665722Y-49994064D01*
X33676994Y-50007017D01*
X33687236Y-50020579D01*
X33741727Y-50070254D01*
X33745847Y-50074189D01*
X33787072Y-50115414D01*
X33802164Y-50126379D01*
X33812810Y-50135055D01*
X33837959Y-50157981D01*
X33837962Y-50157984D01*
X33886169Y-50187831D01*
X33893776Y-50192938D01*
X33927212Y-50217232D01*
X33958975Y-50233416D01*
X33958989Y-50233423D01*
X33967958Y-50238473D01*
X34011363Y-50265348D01*
X34011367Y-50265349D01*
X34011370Y-50265351D01*
X34033997Y-50274116D01*
X34048374Y-50279686D01*
X34048380Y-50279688D01*
X34059876Y-50284827D01*
X34081555Y-50295873D01*
X34131629Y-50312143D01*
X34138095Y-50314444D01*
X34201540Y-50339023D01*
X34201542Y-50339023D01*
X34201544Y-50339024D01*
X34223828Y-50343189D01*
X34239358Y-50347146D01*
X34246299Y-50349402D01*
X34315127Y-50360303D01*
X34318413Y-50360870D01*
X34402024Y-50376500D01*
X34402026Y-50376500D01*
X34605973Y-50376500D01*
X34605976Y-50376500D01*
X34689609Y-50360865D01*
X34692858Y-50360305D01*
X34761701Y-50349402D01*
X34768642Y-50347146D01*
X34784173Y-50343188D01*
X34806456Y-50339024D01*
X34869925Y-50314435D01*
X34876318Y-50312159D01*
X34926445Y-50295873D01*
X34948126Y-50284825D01*
X34959611Y-50279691D01*
X34996637Y-50265348D01*
X35040042Y-50238472D01*
X35048999Y-50233428D01*
X35080788Y-50217232D01*
X35114213Y-50192946D01*
X35121822Y-50187835D01*
X35170041Y-50157981D01*
X35195189Y-50135053D01*
X35205830Y-50126382D01*
X35220928Y-50115414D01*
X35262171Y-50074169D01*
X35266269Y-50070256D01*
X35320764Y-50020579D01*
X35331005Y-50007017D01*
X35342286Y-49994055D01*
X35343414Y-49992928D01*
X35387687Y-49931989D01*
X35388962Y-49930267D01*
X35443673Y-49857821D01*
X35486689Y-49771429D01*
X35487113Y-49770588D01*
X35523873Y-49698445D01*
X35523876Y-49698433D01*
X35525740Y-49693936D01*
X35526000Y-49694043D01*
X35529545Y-49685363D01*
X35534582Y-49675250D01*
X35556316Y-49598858D01*
X35557627Y-49594555D01*
X35577402Y-49533701D01*
X35579431Y-49520881D01*
X35582640Y-49506342D01*
X35586212Y-49493789D01*
X35590397Y-49479083D01*
X35596152Y-49416966D01*
X35597150Y-49409013D01*
X35597282Y-49408184D01*
X35604500Y-49362611D01*
X35604500Y-49332616D01*
X35605029Y-49321175D01*
X35609215Y-49276000D01*
X35609215Y-49275998D01*
X35605029Y-49230823D01*
X35604500Y-49219382D01*
X35604500Y-47081389D01*
X35596170Y-47028795D01*
X35577402Y-46910299D01*
X35523873Y-46745555D01*
X35445232Y-46591212D01*
X35343414Y-46451072D01*
X35220928Y-46328586D01*
X33394023Y-44501681D01*
X33360538Y-44440358D01*
X33365522Y-44370666D01*
X33394023Y-44326319D01*
X34927523Y-42792819D01*
X34988846Y-42759334D01*
X35015204Y-42756500D01*
X48260796Y-42756500D01*
X48327835Y-42776185D01*
X48348477Y-42792819D01*
X48393181Y-42837523D01*
X48426666Y-42898846D01*
X48429500Y-42925204D01*
X48429500Y-43688796D01*
X48409815Y-43755835D01*
X48393181Y-43776477D01*
X47902181Y-44267477D01*
X47840858Y-44300962D01*
X47771166Y-44295978D01*
X47715233Y-44254106D01*
X47690816Y-44188642D01*
X47690500Y-44179796D01*
X47690500Y-43727004D01*
X47663581Y-43591677D01*
X47663580Y-43591676D01*
X47663580Y-43591672D01*
X47663578Y-43591667D01*
X47610778Y-43464195D01*
X47610771Y-43464182D01*
X47534114Y-43349458D01*
X47534111Y-43349454D01*
X47436545Y-43251888D01*
X47436541Y-43251885D01*
X47321817Y-43175228D01*
X47321804Y-43175221D01*
X47194332Y-43122421D01*
X47194322Y-43122418D01*
X47058995Y-43095500D01*
X47058993Y-43095500D01*
X46921007Y-43095500D01*
X46921005Y-43095500D01*
X46785677Y-43122418D01*
X46785667Y-43122421D01*
X46658195Y-43175221D01*
X46658182Y-43175228D01*
X46543458Y-43251885D01*
X46543454Y-43251888D01*
X46445888Y-43349454D01*
X46445885Y-43349458D01*
X46369228Y-43464182D01*
X46369221Y-43464195D01*
X46316421Y-43591667D01*
X46316418Y-43591677D01*
X46289500Y-43727004D01*
X46289500Y-43727007D01*
X46289500Y-44664993D01*
X46289500Y-44664995D01*
X46289499Y-44664995D01*
X46316418Y-44800322D01*
X46316421Y-44800332D01*
X46369221Y-44927804D01*
X46369228Y-44927817D01*
X46445885Y-45042541D01*
X46445888Y-45042545D01*
X46543454Y-45140111D01*
X46543458Y-45140114D01*
X46658182Y-45216771D01*
X46658189Y-45216775D01*
X46695115Y-45232070D01*
X46749518Y-45275909D01*
X46771584Y-45342203D01*
X46754306Y-45409903D01*
X46735344Y-45434312D01*
X45003072Y-47166586D01*
X44880588Y-47289069D01*
X44880588Y-47289070D01*
X44880586Y-47289072D01*
X44851969Y-47328460D01*
X44778768Y-47429211D01*
X44700128Y-47583552D01*
X44700127Y-47583554D01*
X44700127Y-47583555D01*
X44673362Y-47665927D01*
X44646597Y-47748302D01*
X44619500Y-47919389D01*
X44619500Y-57490610D01*
X44638821Y-57612603D01*
X44646598Y-57661701D01*
X44652768Y-57680691D01*
X44700128Y-57826447D01*
X44743719Y-57912000D01*
X44778768Y-57980788D01*
X44880586Y-58120928D01*
X44880588Y-58120930D01*
X44933181Y-58173523D01*
X44966666Y-58234846D01*
X44969500Y-58261204D01*
X44969500Y-58308664D01*
X44949815Y-58375703D01*
X44897011Y-58421458D01*
X44827853Y-58431402D01*
X44787056Y-58418027D01*
X44781814Y-58415225D01*
X44654332Y-58362421D01*
X44654322Y-58362418D01*
X44518995Y-58335500D01*
X44518993Y-58335500D01*
X44381007Y-58335500D01*
X44381005Y-58335500D01*
X44245677Y-58362418D01*
X44245667Y-58362421D01*
X44118195Y-58415221D01*
X44118182Y-58415228D01*
X44003458Y-58491885D01*
X44003454Y-58491888D01*
X43905888Y-58589454D01*
X43905885Y-58589458D01*
X43829228Y-58704182D01*
X43829223Y-58704192D01*
X43782742Y-58816408D01*
X43755862Y-58856636D01*
X43022181Y-59590318D01*
X42960858Y-59623803D01*
X42891167Y-59618819D01*
X42835233Y-59576947D01*
X42810816Y-59511483D01*
X42810500Y-59502637D01*
X42810500Y-59347306D01*
X42810499Y-59347304D01*
X42775896Y-59173341D01*
X42775893Y-59173333D01*
X42752113Y-59115920D01*
X42708016Y-59009459D01*
X42708009Y-59009446D01*
X42609464Y-58861965D01*
X42609461Y-58861961D01*
X42604139Y-58856639D01*
X42577259Y-58816411D01*
X42530776Y-58704191D01*
X42530771Y-58704182D01*
X42454114Y-58589458D01*
X42454111Y-58589454D01*
X42435384Y-58570727D01*
X42401899Y-58509404D01*
X42406883Y-58439712D01*
X42448755Y-58383779D01*
X42502656Y-58360737D01*
X42507636Y-58359905D01*
X42533614Y-58355571D01*
X42768810Y-58274828D01*
X42987509Y-58156474D01*
X43183744Y-58003738D01*
X43352164Y-57820785D01*
X43488173Y-57612607D01*
X43588063Y-57384881D01*
X43649108Y-57143821D01*
X43649109Y-57143812D01*
X43669643Y-56896005D01*
X43669643Y-56895994D01*
X43649109Y-56648183D01*
X43649107Y-56648175D01*
X43588063Y-56407118D01*
X43488173Y-56179393D01*
X43352166Y-55971217D01*
X43330557Y-55947744D01*
X43183744Y-55788262D01*
X42987509Y-55635526D01*
X42987507Y-55635525D01*
X42987506Y-55635524D01*
X42768811Y-55517172D01*
X42768802Y-55517169D01*
X42533616Y-55436429D01*
X42288335Y-55395500D01*
X42039665Y-55395500D01*
X41794383Y-55436429D01*
X41559197Y-55517169D01*
X41559188Y-55517172D01*
X41340493Y-55635524D01*
X41144257Y-55788261D01*
X40975834Y-55971216D01*
X40973627Y-55974595D01*
X40920474Y-56019944D01*
X40894027Y-56028375D01*
X40885338Y-56030103D01*
X40885329Y-56030106D01*
X40803392Y-56064045D01*
X40803393Y-56064046D01*
X40721455Y-56097985D01*
X40633040Y-56157063D01*
X40633039Y-56157064D01*
X40573961Y-56196537D01*
X40573960Y-56196538D01*
X39795319Y-56975181D01*
X39733996Y-57008666D01*
X39707638Y-57011500D01*
X38351977Y-57011500D01*
X38284938Y-56991815D01*
X38239183Y-56939011D01*
X38231733Y-56911865D01*
X38230876Y-56912068D01*
X38229092Y-56904520D01*
X38178797Y-56769671D01*
X38178793Y-56769664D01*
X38092547Y-56654455D01*
X38092544Y-56654452D01*
X37977335Y-56568206D01*
X37977328Y-56568202D01*
X37842482Y-56517908D01*
X37842483Y-56517908D01*
X37782883Y-56511501D01*
X37782881Y-56511500D01*
X37782873Y-56511500D01*
X37782865Y-56511500D01*
X37268361Y-56511500D01*
X37201322Y-56491815D01*
X37155567Y-56439011D01*
X37145623Y-56369853D01*
X37174648Y-56306297D01*
X37180680Y-56299819D01*
X38540588Y-54939912D01*
X40069464Y-53411036D01*
X40155283Y-53282598D01*
X40168013Y-53263547D01*
X40209489Y-53163414D01*
X40235895Y-53099666D01*
X40270500Y-52925692D01*
X40270500Y-52748308D01*
X40270500Y-45404048D01*
X40290185Y-45337009D01*
X40306814Y-45316371D01*
X40370047Y-45253139D01*
X40500568Y-45066734D01*
X40573119Y-44911148D01*
X40619290Y-44858711D01*
X40686484Y-44839559D01*
X40753365Y-44859775D01*
X40798700Y-44912940D01*
X40809500Y-44963555D01*
X40809500Y-46395389D01*
X40809500Y-46568611D01*
X40813080Y-46591212D01*
X40836011Y-46736000D01*
X40836598Y-46739701D01*
X40890127Y-46904445D01*
X40968768Y-47058788D01*
X41070586Y-47198928D01*
X41070588Y-47198930D01*
X41138795Y-47267137D01*
X41172280Y-47328460D01*
X41174690Y-47344578D01*
X41186890Y-47491812D01*
X41186892Y-47491824D01*
X41247936Y-47732881D01*
X41347826Y-47960606D01*
X41483833Y-48168782D01*
X41497528Y-48183659D01*
X41652256Y-48351738D01*
X41848491Y-48504474D01*
X42067190Y-48622828D01*
X42302386Y-48703571D01*
X42547665Y-48744500D01*
X42796335Y-48744500D01*
X43041614Y-48703571D01*
X43276810Y-48622828D01*
X43495509Y-48504474D01*
X43691744Y-48351738D01*
X43860164Y-48168785D01*
X43996173Y-47960607D01*
X44096063Y-47732881D01*
X44157108Y-47491821D01*
X44162296Y-47429211D01*
X44177643Y-47244005D01*
X44177643Y-47243994D01*
X44157109Y-46996187D01*
X44157107Y-46996175D01*
X44096063Y-46755118D01*
X43996173Y-46527393D01*
X43860166Y-46319217D01*
X43802948Y-46257062D01*
X43691744Y-46136262D01*
X43495509Y-45983526D01*
X43495507Y-45983525D01*
X43495506Y-45983524D01*
X43276811Y-45865172D01*
X43276802Y-45865169D01*
X43094237Y-45802493D01*
X43037221Y-45762107D01*
X43011091Y-45697307D01*
X43010500Y-45685212D01*
X43010500Y-44664995D01*
X43749499Y-44664995D01*
X43776418Y-44800322D01*
X43776421Y-44800332D01*
X43829221Y-44927804D01*
X43829228Y-44927817D01*
X43905885Y-45042541D01*
X43905888Y-45042545D01*
X44003454Y-45140111D01*
X44003458Y-45140114D01*
X44118182Y-45216771D01*
X44118195Y-45216778D01*
X44245667Y-45269578D01*
X44245672Y-45269580D01*
X44245676Y-45269580D01*
X44245677Y-45269581D01*
X44381004Y-45296500D01*
X44381007Y-45296500D01*
X44518995Y-45296500D01*
X44622716Y-45275868D01*
X44654328Y-45269580D01*
X44781811Y-45216775D01*
X44896542Y-45140114D01*
X44994114Y-45042542D01*
X45070775Y-44927811D01*
X45123580Y-44800328D01*
X45137392Y-44730891D01*
X45150500Y-44664995D01*
X45150500Y-43727004D01*
X45123581Y-43591677D01*
X45123580Y-43591676D01*
X45123580Y-43591672D01*
X45123578Y-43591667D01*
X45070778Y-43464195D01*
X45070771Y-43464182D01*
X44994114Y-43349458D01*
X44994111Y-43349454D01*
X44896545Y-43251888D01*
X44896541Y-43251885D01*
X44781817Y-43175228D01*
X44781804Y-43175221D01*
X44654332Y-43122421D01*
X44654322Y-43122418D01*
X44518995Y-43095500D01*
X44518993Y-43095500D01*
X44381007Y-43095500D01*
X44381005Y-43095500D01*
X44245677Y-43122418D01*
X44245667Y-43122421D01*
X44118195Y-43175221D01*
X44118182Y-43175228D01*
X44003458Y-43251885D01*
X44003454Y-43251888D01*
X43905888Y-43349454D01*
X43905885Y-43349458D01*
X43829228Y-43464182D01*
X43829221Y-43464195D01*
X43776421Y-43591667D01*
X43776418Y-43591677D01*
X43749500Y-43727004D01*
X43749500Y-43727007D01*
X43749500Y-44664993D01*
X43749500Y-44664995D01*
X43749499Y-44664995D01*
X43010500Y-44664995D01*
X43010500Y-44109389D01*
X43000038Y-44043333D01*
X42983402Y-43938299D01*
X42929873Y-43773555D01*
X42851232Y-43619212D01*
X42749414Y-43479072D01*
X42626928Y-43356586D01*
X42486788Y-43254768D01*
X42332445Y-43176127D01*
X42167701Y-43122598D01*
X42167699Y-43122597D01*
X42167698Y-43122597D01*
X42036271Y-43101781D01*
X41996611Y-43095500D01*
X41823389Y-43095500D01*
X41783728Y-43101781D01*
X41652302Y-43122597D01*
X41487552Y-43176128D01*
X41333211Y-43254768D01*
X41253256Y-43312859D01*
X41193072Y-43356586D01*
X41193070Y-43356588D01*
X41193069Y-43356588D01*
X41070588Y-43479069D01*
X41070588Y-43479070D01*
X41070586Y-43479072D01*
X41026859Y-43539256D01*
X40968768Y-43619211D01*
X40890128Y-43773552D01*
X40836597Y-43938302D01*
X40836596Y-43938304D01*
X40835651Y-43944274D01*
X40805718Y-44007407D01*
X40746405Y-44044335D01*
X40676542Y-44043333D01*
X40618312Y-44004720D01*
X40599497Y-43972191D01*
X40599027Y-43972411D01*
X40588014Y-43948793D01*
X40500568Y-43761266D01*
X40385199Y-43596500D01*
X40370045Y-43574858D01*
X40209141Y-43413954D01*
X40022734Y-43283432D01*
X40022732Y-43283431D01*
X39816497Y-43187261D01*
X39816488Y-43187258D01*
X39596697Y-43128366D01*
X39596693Y-43128365D01*
X39596692Y-43128365D01*
X39596691Y-43128364D01*
X39596686Y-43128364D01*
X39370002Y-43108532D01*
X39369998Y-43108532D01*
X39143313Y-43128364D01*
X39143302Y-43128366D01*
X38923511Y-43187258D01*
X38923502Y-43187261D01*
X38717267Y-43283431D01*
X38717265Y-43283432D01*
X38530858Y-43413954D01*
X38369954Y-43574858D01*
X38239432Y-43761265D01*
X38239431Y-43761267D01*
X38143261Y-43967502D01*
X38143258Y-43967511D01*
X38084366Y-44187302D01*
X38084364Y-44187313D01*
X38064532Y-44413998D01*
X38064532Y-44414001D01*
X38084364Y-44640686D01*
X38084366Y-44640697D01*
X38143258Y-44860488D01*
X38143261Y-44860497D01*
X38239431Y-45066732D01*
X38239432Y-45066734D01*
X38369951Y-45253137D01*
X38369952Y-45253138D01*
X38369953Y-45253139D01*
X38433182Y-45316368D01*
X38466666Y-45377689D01*
X38469500Y-45404048D01*
X38469500Y-52412637D01*
X38449815Y-52479676D01*
X38433181Y-52500318D01*
X34458318Y-56475181D01*
X34396995Y-56508666D01*
X34370637Y-56511500D01*
X34178951Y-56511500D01*
X34140550Y-56517908D01*
X33950015Y-56549702D01*
X33730504Y-56625061D01*
X33730495Y-56625064D01*
X33526371Y-56735531D01*
X33526365Y-56735535D01*
X33343222Y-56878081D01*
X33343219Y-56878084D01*
X33343216Y-56878086D01*
X33343216Y-56878087D01*
X33288077Y-56937984D01*
X33186016Y-57048852D01*
X33059075Y-57243151D01*
X32965842Y-57455699D01*
X32908866Y-57680691D01*
X32908864Y-57680702D01*
X32889700Y-57911993D01*
X32889700Y-57912006D01*
X32908864Y-58143297D01*
X32908866Y-58143308D01*
X32965842Y-58368300D01*
X33059075Y-58580848D01*
X33186016Y-58775147D01*
X33186019Y-58775151D01*
X33186021Y-58775153D01*
X33343216Y-58945913D01*
X33343219Y-58945915D01*
X33343222Y-58945918D01*
X33526365Y-59088464D01*
X33526371Y-59088468D01*
X33526374Y-59088470D01*
X33730497Y-59198936D01*
X33844487Y-59238068D01*
X33950015Y-59274297D01*
X33950017Y-59274297D01*
X33950019Y-59274298D01*
X34178951Y-59312500D01*
X34178952Y-59312500D01*
X34411048Y-59312500D01*
X34411049Y-59312500D01*
X34639981Y-59274298D01*
X34859503Y-59198936D01*
X35063626Y-59088470D01*
X35246784Y-58945913D01*
X35255130Y-58936846D01*
X35315010Y-58900854D01*
X35384849Y-58902949D01*
X35442468Y-58942469D01*
X35462544Y-58977491D01*
X35491203Y-59054330D01*
X35491206Y-59054335D01*
X35577452Y-59169544D01*
X35577455Y-59169547D01*
X35692664Y-59255793D01*
X35692671Y-59255797D01*
X35827517Y-59306091D01*
X35827516Y-59306091D01*
X35834444Y-59306835D01*
X35887127Y-59312500D01*
X37782872Y-59312499D01*
X37842483Y-59306091D01*
X37977331Y-59255796D01*
X38092546Y-59169546D01*
X38178796Y-59054331D01*
X38229091Y-58919483D01*
X38229091Y-58919481D01*
X38230874Y-58911938D01*
X38233146Y-58912474D01*
X38255429Y-58858688D01*
X38312823Y-58818843D01*
X38351976Y-58812500D01*
X40220693Y-58812500D01*
X40220694Y-58812499D01*
X40394666Y-58777895D01*
X40494514Y-58736536D01*
X40558547Y-58710013D01*
X40647910Y-58650302D01*
X40706036Y-58611464D01*
X41162145Y-58155353D01*
X41223465Y-58121871D01*
X41293156Y-58126855D01*
X41325985Y-58145183D01*
X41340491Y-58156474D01*
X41340494Y-58156475D01*
X41340496Y-58156477D01*
X41504893Y-58245444D01*
X41554484Y-58294663D01*
X41569592Y-58362880D01*
X41545422Y-58428436D01*
X41514768Y-58457600D01*
X41463460Y-58491883D01*
X41463454Y-58491888D01*
X41365888Y-58589454D01*
X41365885Y-58589458D01*
X41289228Y-58704182D01*
X41289223Y-58704192D01*
X41242740Y-58816412D01*
X41215865Y-58856636D01*
X41210532Y-58861969D01*
X41111990Y-59009446D01*
X41111983Y-59009459D01*
X41044106Y-59173332D01*
X41044103Y-59173341D01*
X41009500Y-59347304D01*
X41009500Y-60278846D01*
X40989815Y-60345885D01*
X40973181Y-60366527D01*
X38777923Y-62561785D01*
X38716600Y-62595270D01*
X38690242Y-62598104D01*
X34987700Y-62598104D01*
X34813735Y-62632707D01*
X34813719Y-62632712D01*
X34697849Y-62680706D01*
X34697850Y-62680707D01*
X34649846Y-62700592D01*
X34611075Y-62726499D01*
X34611074Y-62726500D01*
X34502361Y-62799139D01*
X34502357Y-62799142D01*
X32082319Y-65219181D01*
X32020996Y-65252666D01*
X31994638Y-65255500D01*
X31400898Y-65255500D01*
X31361853Y-65260188D01*
X31312438Y-65266122D01*
X31171656Y-65321639D01*
X31051077Y-65413077D01*
X30959639Y-65533656D01*
X30904122Y-65674438D01*
X30901240Y-65698442D01*
X30893500Y-65762898D01*
X30893500Y-67299102D01*
X30898854Y-67343690D01*
X30904122Y-67387561D01*
X30904122Y-67387563D01*
X30904123Y-67387564D01*
X30916768Y-67419630D01*
X30959639Y-67528343D01*
X31051077Y-67648922D01*
X31171656Y-67740360D01*
X31171657Y-67740360D01*
X31171658Y-67740361D01*
X31312436Y-67795877D01*
X31400898Y-67806500D01*
X31400903Y-67806500D01*
X32687097Y-67806500D01*
X32687102Y-67806500D01*
X32775564Y-67795877D01*
X32916342Y-67740361D01*
X33036922Y-67648922D01*
X33128361Y-67528342D01*
X33179433Y-67398832D01*
X33222338Y-67343690D01*
X33288246Y-67320497D01*
X33356230Y-67336617D01*
X33395105Y-67371439D01*
X33514272Y-67535459D01*
X33514276Y-67535464D01*
X33664535Y-67685723D01*
X33664540Y-67685727D01*
X33836442Y-67810620D01*
X34025782Y-67907095D01*
X34227871Y-67972757D01*
X34294000Y-67983231D01*
X34294000Y-66935145D01*
X34360657Y-66973630D01*
X34481465Y-67006000D01*
X34606535Y-67006000D01*
X34727343Y-66973630D01*
X34794000Y-66935145D01*
X34794000Y-67983230D01*
X34860126Y-67972757D01*
X34860129Y-67972757D01*
X35062217Y-67907095D01*
X35251557Y-67810620D01*
X35423459Y-67685727D01*
X35423464Y-67685723D01*
X35573723Y-67535464D01*
X35573727Y-67535459D01*
X35698620Y-67363558D01*
X35795466Y-67173488D01*
X35843440Y-67122692D01*
X35911261Y-67105897D01*
X35977396Y-67128434D01*
X36016435Y-67173488D01*
X36060002Y-67258992D01*
X36060003Y-67258993D01*
X36166441Y-67405494D01*
X36166445Y-67405499D01*
X36294500Y-67533554D01*
X36294505Y-67533558D01*
X36422287Y-67626396D01*
X36441006Y-67639996D01*
X36530750Y-67685723D01*
X36602360Y-67722211D01*
X36602363Y-67722212D01*
X36688476Y-67750191D01*
X36774591Y-67778171D01*
X36857429Y-67791291D01*
X36953449Y-67806500D01*
X36953454Y-67806500D01*
X37134551Y-67806500D01*
X37221259Y-67792765D01*
X37313409Y-67778171D01*
X37485639Y-67722211D01*
X37646994Y-67639996D01*
X37793501Y-67533553D01*
X37921553Y-67405501D01*
X38027996Y-67258994D01*
X38110211Y-67097639D01*
X38124282Y-67054328D01*
X38154531Y-67004967D01*
X44629361Y-60530137D01*
X44669587Y-60503260D01*
X44715942Y-60484058D01*
X44781811Y-60456775D01*
X44781819Y-60456769D01*
X44787048Y-60453976D01*
X44855450Y-60439735D01*
X44920694Y-60464736D01*
X44962064Y-60521041D01*
X44969500Y-60563335D01*
X44969500Y-61118796D01*
X44949815Y-61185835D01*
X44933181Y-61206477D01*
X44880588Y-61259069D01*
X44880588Y-61259070D01*
X44880586Y-61259072D01*
X44836859Y-61319256D01*
X44778768Y-61399211D01*
X44700128Y-61553552D01*
X44646597Y-61718302D01*
X44619500Y-61889389D01*
X44619500Y-63500795D01*
X44599815Y-63567834D01*
X44583181Y-63588476D01*
X43454113Y-64717543D01*
X43392790Y-64751028D01*
X43347950Y-64752477D01*
X43314934Y-64747500D01*
X43314929Y-64747500D01*
X43045071Y-64747500D01*
X43045063Y-64747500D01*
X42778232Y-64787718D01*
X42778226Y-64787720D01*
X42520358Y-64867262D01*
X42277230Y-64984346D01*
X42054258Y-65136365D01*
X41856442Y-65319910D01*
X41688185Y-65530898D01*
X41553258Y-65764599D01*
X41553256Y-65764603D01*
X41454666Y-66015804D01*
X41454664Y-66015811D01*
X41394616Y-66278898D01*
X41374451Y-66547995D01*
X41374451Y-66548004D01*
X41394616Y-66817101D01*
X41454664Y-67080188D01*
X41454666Y-67080195D01*
X41553256Y-67331396D01*
X41553258Y-67331400D01*
X41560354Y-67343690D01*
X41688185Y-67565102D01*
X41784381Y-67685727D01*
X41856442Y-67776089D01*
X42043183Y-67949358D01*
X42054259Y-67959635D01*
X42277226Y-68111651D01*
X42520359Y-68228738D01*
X42778228Y-68308280D01*
X42778229Y-68308280D01*
X42778232Y-68308281D01*
X43045063Y-68348499D01*
X43045068Y-68348499D01*
X43045071Y-68348500D01*
X43045072Y-68348500D01*
X43314928Y-68348500D01*
X43314929Y-68348500D01*
X43314936Y-68348499D01*
X43581767Y-68308281D01*
X43581768Y-68308280D01*
X43581772Y-68308280D01*
X43839641Y-68228738D01*
X44082775Y-68111651D01*
X44305741Y-67959635D01*
X44503561Y-67776085D01*
X44671815Y-67565102D01*
X44806743Y-67331398D01*
X44905334Y-67080195D01*
X44965383Y-66817103D01*
X44985549Y-66548000D01*
X44979939Y-66473147D01*
X44972426Y-66372890D01*
X44987045Y-66304567D01*
X45008394Y-66275946D01*
X46559414Y-64724928D01*
X46661232Y-64584788D01*
X46739873Y-64430446D01*
X46793402Y-64265701D01*
X46820500Y-64094611D01*
X46820500Y-63921390D01*
X46820500Y-61889389D01*
X46793402Y-61718299D01*
X46739873Y-61553555D01*
X46661232Y-61399212D01*
X46559414Y-61259072D01*
X46506819Y-61206477D01*
X46473334Y-61145154D01*
X46470500Y-61118796D01*
X46470500Y-60563335D01*
X46490185Y-60496296D01*
X46542989Y-60450541D01*
X46612147Y-60440597D01*
X46652952Y-60453976D01*
X46658184Y-60456771D01*
X46658189Y-60456775D01*
X46785672Y-60509580D01*
X46785676Y-60509580D01*
X46785677Y-60509581D01*
X46921004Y-60536500D01*
X46921007Y-60536500D01*
X47058995Y-60536500D01*
X47194319Y-60509582D01*
X47194321Y-60509581D01*
X47194328Y-60509580D01*
X47194334Y-60509577D01*
X47199501Y-60508010D01*
X47269368Y-60507385D01*
X47328482Y-60544631D01*
X47358075Y-60607925D01*
X47359500Y-60626670D01*
X47359500Y-64917262D01*
X47339815Y-64984301D01*
X47305352Y-65019715D01*
X47134262Y-65136362D01*
X46936442Y-65319910D01*
X46768185Y-65530898D01*
X46633258Y-65764599D01*
X46633256Y-65764603D01*
X46534666Y-66015804D01*
X46534664Y-66015811D01*
X46474616Y-66278898D01*
X46454451Y-66547995D01*
X46454451Y-66548004D01*
X46474616Y-66817101D01*
X46534664Y-67080188D01*
X46534666Y-67080195D01*
X46633256Y-67331396D01*
X46633258Y-67331400D01*
X46640354Y-67343690D01*
X46768185Y-67565102D01*
X46864381Y-67685727D01*
X46936442Y-67776089D01*
X47123183Y-67949358D01*
X47134259Y-67959635D01*
X47357226Y-68111651D01*
X47600359Y-68228738D01*
X47858228Y-68308280D01*
X47858229Y-68308280D01*
X47858232Y-68308281D01*
X48125063Y-68348499D01*
X48125068Y-68348499D01*
X48125071Y-68348500D01*
X48125072Y-68348500D01*
X48394928Y-68348500D01*
X48394929Y-68348500D01*
X48394936Y-68348499D01*
X48661767Y-68308281D01*
X48661768Y-68308280D01*
X48661772Y-68308280D01*
X48919641Y-68228738D01*
X49162775Y-68111651D01*
X49385741Y-67959635D01*
X49583561Y-67776085D01*
X49751815Y-67565102D01*
X49886743Y-67331398D01*
X49985334Y-67080195D01*
X50045383Y-66817103D01*
X50065549Y-66548000D01*
X50045383Y-66278897D01*
X49985334Y-66015805D01*
X49886743Y-65764602D01*
X49751815Y-65530898D01*
X49583561Y-65319915D01*
X49583560Y-65319914D01*
X49583557Y-65319910D01*
X49385737Y-65136361D01*
X49214648Y-65019714D01*
X49198610Y-65000155D01*
X51340000Y-65000155D01*
X51340000Y-66298000D01*
X52620936Y-66298000D01*
X52609207Y-66326316D01*
X52580000Y-66473147D01*
X52580000Y-66622853D01*
X52609207Y-66769684D01*
X52620936Y-66798000D01*
X51340000Y-66798000D01*
X51340000Y-68095844D01*
X51346401Y-68155372D01*
X51346403Y-68155379D01*
X51396645Y-68290086D01*
X51396649Y-68290093D01*
X51482809Y-68405187D01*
X51482812Y-68405190D01*
X51597906Y-68491350D01*
X51597913Y-68491354D01*
X51732620Y-68541596D01*
X51732627Y-68541598D01*
X51792155Y-68547999D01*
X51792172Y-68548000D01*
X53090000Y-68548000D01*
X53090000Y-67267064D01*
X53118316Y-67278793D01*
X53265147Y-67308000D01*
X53414853Y-67308000D01*
X53561684Y-67278793D01*
X53590000Y-67267064D01*
X53590000Y-68548000D01*
X54887828Y-68548000D01*
X54887844Y-68547999D01*
X54947372Y-68541598D01*
X54947379Y-68541596D01*
X55082086Y-68491354D01*
X55082093Y-68491350D01*
X55197187Y-68405190D01*
X55197190Y-68405187D01*
X55283350Y-68290093D01*
X55283354Y-68290086D01*
X55333596Y-68155379D01*
X55333598Y-68155372D01*
X55339999Y-68095844D01*
X55340000Y-68095827D01*
X55340000Y-66798000D01*
X54059064Y-66798000D01*
X54070793Y-66769684D01*
X54100000Y-66622853D01*
X54100000Y-66473147D01*
X54070793Y-66326316D01*
X54059064Y-66298000D01*
X55340000Y-66298000D01*
X55340000Y-65000172D01*
X55339999Y-65000155D01*
X55333598Y-64940627D01*
X55333596Y-64940620D01*
X55283354Y-64805913D01*
X55283350Y-64805906D01*
X55197190Y-64690812D01*
X55197187Y-64690809D01*
X55082093Y-64604649D01*
X55082086Y-64604645D01*
X54947379Y-64554403D01*
X54947372Y-64554401D01*
X54887844Y-64548000D01*
X53590000Y-64548000D01*
X53590000Y-65828935D01*
X53561684Y-65817207D01*
X53414853Y-65788000D01*
X53265147Y-65788000D01*
X53118316Y-65817207D01*
X53090000Y-65828935D01*
X53090000Y-64548000D01*
X51792155Y-64548000D01*
X51732627Y-64554401D01*
X51732620Y-64554403D01*
X51597913Y-64604645D01*
X51597906Y-64604649D01*
X51482812Y-64690809D01*
X51482809Y-64690812D01*
X51396649Y-64805906D01*
X51396645Y-64805913D01*
X51346403Y-64940620D01*
X51346401Y-64940627D01*
X51340000Y-65000155D01*
X49198610Y-65000155D01*
X49170346Y-64965685D01*
X49160500Y-64917261D01*
X49160500Y-61036373D01*
X49180185Y-60969334D01*
X49232989Y-60923579D01*
X49302147Y-60913635D01*
X49303898Y-60913900D01*
X49443429Y-60936000D01*
X49616571Y-60936000D01*
X49787584Y-60908914D01*
X49952257Y-60855408D01*
X50106524Y-60776804D01*
X50246602Y-60675032D01*
X50331041Y-60590594D01*
X49576447Y-59836000D01*
X49582661Y-59836000D01*
X49684394Y-59808741D01*
X49775606Y-59756080D01*
X49850080Y-59681606D01*
X49902741Y-59590394D01*
X49930000Y-59488661D01*
X49930000Y-59482447D01*
X50587764Y-60140211D01*
X50602913Y-60093588D01*
X50602913Y-60093585D01*
X50630000Y-59922571D01*
X50630000Y-58949428D01*
X50602913Y-58778414D01*
X50587763Y-58731788D01*
X49930000Y-59389551D01*
X49930000Y-59383339D01*
X49902741Y-59281606D01*
X49850080Y-59190394D01*
X49775606Y-59115920D01*
X49684394Y-59063259D01*
X49582661Y-59036000D01*
X49576447Y-59036000D01*
X50331041Y-58281406D01*
X50246602Y-58196967D01*
X50106524Y-58095195D01*
X49952257Y-58016591D01*
X49787584Y-57963085D01*
X49616571Y-57936000D01*
X49443428Y-57936000D01*
X49303897Y-57958099D01*
X49234604Y-57949144D01*
X49181152Y-57904148D01*
X49160513Y-57837396D01*
X49160500Y-57835626D01*
X49160500Y-56895994D01*
X50310357Y-56895994D01*
X50310357Y-56896005D01*
X50330890Y-57143812D01*
X50330892Y-57143824D01*
X50391936Y-57384881D01*
X50491826Y-57612606D01*
X50627833Y-57820782D01*
X50633046Y-57826445D01*
X50796256Y-58003738D01*
X50812770Y-58016591D01*
X50992488Y-58156472D01*
X50992493Y-58156475D01*
X51104517Y-58217099D01*
X51154108Y-58266318D01*
X51169500Y-58326154D01*
X51169500Y-59524695D01*
X51204103Y-59698658D01*
X51204106Y-59698667D01*
X51271983Y-59862540D01*
X51271990Y-59862553D01*
X51370535Y-60010034D01*
X51370538Y-60010038D01*
X51375860Y-60015360D01*
X51402740Y-60055588D01*
X51449223Y-60167807D01*
X51449228Y-60167817D01*
X51525885Y-60282541D01*
X51525888Y-60282545D01*
X51623454Y-60380111D01*
X51623458Y-60380114D01*
X51738182Y-60456771D01*
X51738195Y-60456778D01*
X51865667Y-60509578D01*
X51865672Y-60509580D01*
X51865676Y-60509580D01*
X51865677Y-60509581D01*
X52001004Y-60536500D01*
X52001007Y-60536500D01*
X52138995Y-60536500D01*
X52230041Y-60518389D01*
X52274328Y-60509580D01*
X52401811Y-60456775D01*
X52516542Y-60380114D01*
X52614114Y-60282542D01*
X52690775Y-60167811D01*
X52737262Y-60055580D01*
X52764144Y-60015354D01*
X52769464Y-60010035D01*
X52839650Y-59904995D01*
X53909499Y-59904995D01*
X53936418Y-60040322D01*
X53936421Y-60040332D01*
X53989221Y-60167804D01*
X53989228Y-60167817D01*
X54065885Y-60282541D01*
X54065888Y-60282545D01*
X54163454Y-60380111D01*
X54163458Y-60380114D01*
X54278182Y-60456771D01*
X54278195Y-60456778D01*
X54405667Y-60509578D01*
X54405672Y-60509580D01*
X54405676Y-60509580D01*
X54405677Y-60509581D01*
X54541004Y-60536500D01*
X54541007Y-60536500D01*
X54678995Y-60536500D01*
X54770041Y-60518389D01*
X54814328Y-60509580D01*
X54941811Y-60456775D01*
X55056542Y-60380114D01*
X55154114Y-60282542D01*
X55230775Y-60167811D01*
X55283580Y-60040328D01*
X55293802Y-59988940D01*
X55310500Y-59904995D01*
X55310500Y-59347304D01*
X56249500Y-59347304D01*
X56249500Y-64350696D01*
X56284103Y-64524658D01*
X56284105Y-64524666D01*
X56309009Y-64584789D01*
X56351984Y-64688542D01*
X56351985Y-64688544D01*
X56411063Y-64776960D01*
X56411064Y-64776961D01*
X56450534Y-64836034D01*
X57563140Y-65948640D01*
X57596625Y-66009963D01*
X57596625Y-66062678D01*
X57550040Y-66276829D01*
X57550039Y-66276839D01*
X57530645Y-66547998D01*
X57530645Y-66548001D01*
X57550039Y-66819160D01*
X57550040Y-66819167D01*
X57606823Y-67080195D01*
X57607825Y-67084801D01*
X57672796Y-67258994D01*
X57702830Y-67339519D01*
X57833109Y-67578107D01*
X57833110Y-67578108D01*
X57833113Y-67578113D01*
X57996029Y-67795742D01*
X57996033Y-67795746D01*
X57996038Y-67795752D01*
X58188247Y-67987961D01*
X58188253Y-67987966D01*
X58188258Y-67987971D01*
X58405887Y-68150887D01*
X58405891Y-68150889D01*
X58405892Y-68150890D01*
X58644481Y-68281169D01*
X58644480Y-68281169D01*
X58644484Y-68281170D01*
X58644487Y-68281172D01*
X58899199Y-68376175D01*
X59164840Y-68433961D01*
X59416605Y-68451967D01*
X59435999Y-68453355D01*
X59436000Y-68453355D01*
X59436001Y-68453355D01*
X59454100Y-68452060D01*
X59707160Y-68433961D01*
X59972801Y-68376175D01*
X60227513Y-68281172D01*
X60227517Y-68281169D01*
X60227519Y-68281169D01*
X60457899Y-68155372D01*
X60466113Y-68150887D01*
X60683742Y-67987971D01*
X60875971Y-67795742D01*
X61038887Y-67578113D01*
X61133144Y-67405494D01*
X61169169Y-67339519D01*
X61169169Y-67339517D01*
X61169172Y-67339513D01*
X61264175Y-67084801D01*
X61321961Y-66819160D01*
X61341355Y-66548000D01*
X61341355Y-66547998D01*
X62510891Y-66547998D01*
X62510891Y-66548001D01*
X62531300Y-66833362D01*
X62592109Y-67112895D01*
X62692091Y-67380958D01*
X62829191Y-67632038D01*
X62829196Y-67632046D01*
X62935882Y-67774561D01*
X62935883Y-67774562D01*
X63830767Y-66879677D01*
X63842497Y-66907995D01*
X63925670Y-67032472D01*
X64031528Y-67138330D01*
X64156005Y-67221503D01*
X64184320Y-67233231D01*
X63289436Y-68128115D01*
X63431960Y-68234807D01*
X63431961Y-68234808D01*
X63683042Y-68371908D01*
X63683041Y-68371908D01*
X63951104Y-68471890D01*
X64230637Y-68532699D01*
X64515999Y-68553109D01*
X64516001Y-68553109D01*
X64801362Y-68532699D01*
X65080895Y-68471890D01*
X65348958Y-68371908D01*
X65600047Y-68234803D01*
X65742561Y-68128116D01*
X65742562Y-68128115D01*
X64847679Y-67233231D01*
X64875995Y-67221503D01*
X65000472Y-67138330D01*
X65106330Y-67032472D01*
X65189503Y-66907995D01*
X65201231Y-66879678D01*
X66096115Y-67774562D01*
X66096116Y-67774561D01*
X66202803Y-67632047D01*
X66339908Y-67380958D01*
X66439890Y-67112895D01*
X66500699Y-66833362D01*
X66521109Y-66548001D01*
X66521109Y-66547998D01*
X66500699Y-66262637D01*
X66439890Y-65983104D01*
X66339908Y-65715041D01*
X66202808Y-65463961D01*
X66202807Y-65463960D01*
X66096115Y-65321436D01*
X65201231Y-66216320D01*
X65189503Y-66188005D01*
X65106330Y-66063528D01*
X65000472Y-65957670D01*
X64875995Y-65874497D01*
X64847678Y-65862767D01*
X65742562Y-64967883D01*
X65742561Y-64967882D01*
X65600046Y-64861196D01*
X65600038Y-64861191D01*
X65348957Y-64724091D01*
X65348958Y-64724091D01*
X65080895Y-64624109D01*
X64801362Y-64563300D01*
X64516001Y-64542891D01*
X64515999Y-64542891D01*
X64230637Y-64563300D01*
X63951104Y-64624109D01*
X63683041Y-64724091D01*
X63431961Y-64861191D01*
X63431953Y-64861196D01*
X63289437Y-64967882D01*
X63289436Y-64967883D01*
X64184321Y-65862767D01*
X64156005Y-65874497D01*
X64031528Y-65957670D01*
X63925670Y-66063528D01*
X63842497Y-66188005D01*
X63830768Y-66216321D01*
X62935883Y-65321436D01*
X62935882Y-65321437D01*
X62829196Y-65463953D01*
X62829191Y-65463961D01*
X62692091Y-65715041D01*
X62592109Y-65983104D01*
X62531300Y-66262637D01*
X62510891Y-66547998D01*
X61341355Y-66547998D01*
X61321961Y-66276840D01*
X61264175Y-66011199D01*
X61169172Y-65756487D01*
X61169170Y-65756484D01*
X61169169Y-65756480D01*
X61038890Y-65517892D01*
X61038889Y-65517891D01*
X61038887Y-65517887D01*
X60875971Y-65300258D01*
X60875966Y-65300253D01*
X60875961Y-65300247D01*
X60683752Y-65108038D01*
X60683746Y-65108033D01*
X60683742Y-65108029D01*
X60466113Y-64945113D01*
X60466108Y-64945110D01*
X60466107Y-64945109D01*
X60227518Y-64814830D01*
X60227519Y-64814830D01*
X60154834Y-64787720D01*
X59972801Y-64719825D01*
X59972794Y-64719823D01*
X59972793Y-64719823D01*
X59707167Y-64662040D01*
X59707160Y-64662039D01*
X59436001Y-64642645D01*
X59435999Y-64642645D01*
X59164839Y-64662039D01*
X59164829Y-64662040D01*
X58950678Y-64708625D01*
X58880987Y-64703641D01*
X58836640Y-64675140D01*
X58086819Y-63925319D01*
X58053334Y-63863996D01*
X58050500Y-63837638D01*
X58050500Y-59347306D01*
X58050499Y-59347304D01*
X58050499Y-59347303D01*
X58789500Y-59347303D01*
X58789500Y-59524696D01*
X58824103Y-59698658D01*
X58824105Y-59698666D01*
X58891988Y-59862548D01*
X58990534Y-60010034D01*
X58990540Y-60010041D01*
X58995860Y-60015361D01*
X59022740Y-60055588D01*
X59069225Y-60167811D01*
X59069228Y-60167817D01*
X59145885Y-60282541D01*
X59145888Y-60282545D01*
X59243454Y-60380111D01*
X59243458Y-60380114D01*
X59358182Y-60456771D01*
X59358195Y-60456778D01*
X59470409Y-60503258D01*
X59510638Y-60530138D01*
X60815966Y-61835466D01*
X60875036Y-61874933D01*
X60875039Y-61874936D01*
X60963450Y-61934011D01*
X60963453Y-61934013D01*
X61045393Y-61967953D01*
X61127334Y-62001895D01*
X61301303Y-62036499D01*
X61301307Y-62036500D01*
X61301308Y-62036500D01*
X61301309Y-62036500D01*
X63759638Y-62036500D01*
X63826677Y-62056185D01*
X63847319Y-62072819D01*
X67723140Y-65948640D01*
X67756625Y-66009963D01*
X67756625Y-66062678D01*
X67710040Y-66276829D01*
X67710039Y-66276839D01*
X67690645Y-66547998D01*
X67690645Y-66548001D01*
X67710039Y-66819160D01*
X67710040Y-66819167D01*
X67766823Y-67080195D01*
X67767825Y-67084801D01*
X67832796Y-67258994D01*
X67862830Y-67339519D01*
X67993109Y-67578107D01*
X67993110Y-67578108D01*
X67993113Y-67578113D01*
X68156029Y-67795742D01*
X68156033Y-67795746D01*
X68156038Y-67795752D01*
X68348247Y-67987961D01*
X68348253Y-67987966D01*
X68348258Y-67987971D01*
X68565887Y-68150887D01*
X68565891Y-68150889D01*
X68565892Y-68150890D01*
X68804481Y-68281169D01*
X68804480Y-68281169D01*
X68804484Y-68281170D01*
X68804487Y-68281172D01*
X69059199Y-68376175D01*
X69324840Y-68433961D01*
X69576605Y-68451967D01*
X69595999Y-68453355D01*
X69596000Y-68453355D01*
X69596001Y-68453355D01*
X69614100Y-68452060D01*
X69867160Y-68433961D01*
X70132801Y-68376175D01*
X70387513Y-68281172D01*
X70387517Y-68281169D01*
X70387519Y-68281169D01*
X70617899Y-68155372D01*
X70626113Y-68150887D01*
X70843742Y-67987971D01*
X71035971Y-67795742D01*
X71198887Y-67578113D01*
X71293144Y-67405494D01*
X71329169Y-67339519D01*
X71329169Y-67339517D01*
X71329172Y-67339513D01*
X71424175Y-67084801D01*
X71481961Y-66819160D01*
X71501355Y-66548000D01*
X71481961Y-66276840D01*
X71424175Y-66011199D01*
X71329172Y-65756487D01*
X71329170Y-65756484D01*
X71329169Y-65756480D01*
X71198890Y-65517892D01*
X71198889Y-65517891D01*
X71198887Y-65517887D01*
X71035971Y-65300258D01*
X71035966Y-65300253D01*
X71035961Y-65300247D01*
X70843752Y-65108038D01*
X70843746Y-65108033D01*
X70843742Y-65108029D01*
X70699640Y-65000155D01*
X72676000Y-65000155D01*
X72676000Y-66298000D01*
X73956936Y-66298000D01*
X73945207Y-66326316D01*
X73916000Y-66473147D01*
X73916000Y-66622853D01*
X73945207Y-66769684D01*
X73956936Y-66798000D01*
X72676000Y-66798000D01*
X72676000Y-68095844D01*
X72682401Y-68155372D01*
X72682403Y-68155379D01*
X72732645Y-68290086D01*
X72732649Y-68290093D01*
X72818809Y-68405187D01*
X72818812Y-68405190D01*
X72933906Y-68491350D01*
X72933913Y-68491354D01*
X73068620Y-68541596D01*
X73068627Y-68541598D01*
X73128155Y-68547999D01*
X73128172Y-68548000D01*
X74426000Y-68548000D01*
X74426000Y-67267064D01*
X74454316Y-67278793D01*
X74601147Y-67308000D01*
X74750853Y-67308000D01*
X74897684Y-67278793D01*
X74926000Y-67267064D01*
X74926000Y-68548000D01*
X76223828Y-68548000D01*
X76223844Y-68547999D01*
X76283372Y-68541598D01*
X76283379Y-68541596D01*
X76418086Y-68491354D01*
X76418093Y-68491350D01*
X76533187Y-68405190D01*
X76533190Y-68405187D01*
X76619350Y-68290093D01*
X76619354Y-68290086D01*
X76669596Y-68155379D01*
X76669598Y-68155372D01*
X76675999Y-68095844D01*
X76676000Y-68095827D01*
X76676000Y-66798000D01*
X75395064Y-66798000D01*
X75406793Y-66769684D01*
X75436000Y-66622853D01*
X75436000Y-66473147D01*
X75406793Y-66326316D01*
X75395064Y-66298000D01*
X76676000Y-66298000D01*
X76676000Y-65000172D01*
X76675999Y-65000155D01*
X76669598Y-64940627D01*
X76669596Y-64940620D01*
X76619354Y-64805913D01*
X76619350Y-64805906D01*
X76533190Y-64690812D01*
X76533187Y-64690809D01*
X76418093Y-64604649D01*
X76418086Y-64604645D01*
X76283379Y-64554403D01*
X76283372Y-64554401D01*
X76223844Y-64548000D01*
X74926000Y-64548000D01*
X74926000Y-65828935D01*
X74897684Y-65817207D01*
X74750853Y-65788000D01*
X74601147Y-65788000D01*
X74454316Y-65817207D01*
X74426000Y-65828935D01*
X74426000Y-64548000D01*
X73128155Y-64548000D01*
X73068627Y-64554401D01*
X73068620Y-64554403D01*
X72933913Y-64604645D01*
X72933906Y-64604649D01*
X72818812Y-64690809D01*
X72818809Y-64690812D01*
X72732649Y-64805906D01*
X72732645Y-64805913D01*
X72682403Y-64940620D01*
X72682401Y-64940627D01*
X72676000Y-65000155D01*
X70699640Y-65000155D01*
X70626113Y-64945113D01*
X70626108Y-64945110D01*
X70626107Y-64945109D01*
X70387518Y-64814830D01*
X70387519Y-64814830D01*
X70314834Y-64787720D01*
X70132801Y-64719825D01*
X70132794Y-64719823D01*
X70132793Y-64719823D01*
X69867167Y-64662040D01*
X69867160Y-64662039D01*
X69596001Y-64642645D01*
X69595999Y-64642645D01*
X69324839Y-64662039D01*
X69324829Y-64662040D01*
X69110678Y-64708625D01*
X69040987Y-64703641D01*
X68996640Y-64675140D01*
X65004260Y-60682760D01*
X64970775Y-60621437D01*
X64975759Y-60551745D01*
X65017631Y-60495812D01*
X65044483Y-60480520D01*
X65101811Y-60456775D01*
X65216542Y-60380114D01*
X65314114Y-60282542D01*
X65390775Y-60167811D01*
X65443580Y-60040328D01*
X65453802Y-59988940D01*
X65470500Y-59904995D01*
X65470500Y-58967004D01*
X65443581Y-58831677D01*
X65443580Y-58831676D01*
X65443580Y-58831672D01*
X65433754Y-58807952D01*
X65426286Y-58738484D01*
X65457561Y-58676004D01*
X65517650Y-58640352D01*
X65548316Y-58636500D01*
X66531684Y-58636500D01*
X66598723Y-58656185D01*
X66644478Y-58708989D01*
X66654422Y-58778147D01*
X66646245Y-58807953D01*
X66636420Y-58831671D01*
X66636418Y-58831677D01*
X66609500Y-58967004D01*
X66609500Y-58967007D01*
X66609500Y-59904993D01*
X66609500Y-59904995D01*
X66609499Y-59904995D01*
X66636418Y-60040322D01*
X66636421Y-60040332D01*
X66689221Y-60167804D01*
X66689228Y-60167817D01*
X66765885Y-60282541D01*
X66765888Y-60282545D01*
X66863454Y-60380111D01*
X66863458Y-60380114D01*
X66978182Y-60456771D01*
X66978195Y-60456778D01*
X67105667Y-60509578D01*
X67105672Y-60509580D01*
X67105676Y-60509580D01*
X67105677Y-60509581D01*
X67241004Y-60536500D01*
X67241007Y-60536500D01*
X67378995Y-60536500D01*
X67470041Y-60518389D01*
X67514328Y-60509580D01*
X67641811Y-60456775D01*
X67756542Y-60380114D01*
X67854114Y-60282542D01*
X67930775Y-60167811D01*
X67983580Y-60040328D01*
X67993802Y-59988940D01*
X68010500Y-59904995D01*
X68010500Y-58967004D01*
X67983581Y-58831677D01*
X67983580Y-58831676D01*
X67983580Y-58831672D01*
X67973754Y-58807952D01*
X67966286Y-58738484D01*
X67997561Y-58676004D01*
X68057650Y-58640352D01*
X68088316Y-58636500D01*
X69071684Y-58636500D01*
X69138723Y-58656185D01*
X69184478Y-58708989D01*
X69194422Y-58778147D01*
X69186245Y-58807953D01*
X69176420Y-58831671D01*
X69176418Y-58831677D01*
X69149500Y-58967004D01*
X69149500Y-58967007D01*
X69149500Y-59904993D01*
X69149500Y-59904995D01*
X69149499Y-59904995D01*
X69176418Y-60040322D01*
X69176421Y-60040332D01*
X69229221Y-60167804D01*
X69229228Y-60167817D01*
X69305885Y-60282541D01*
X69305888Y-60282545D01*
X69403454Y-60380111D01*
X69403458Y-60380114D01*
X69518182Y-60456771D01*
X69518195Y-60456778D01*
X69645667Y-60509578D01*
X69645672Y-60509580D01*
X69645676Y-60509580D01*
X69645677Y-60509581D01*
X69781004Y-60536500D01*
X69781007Y-60536500D01*
X69918995Y-60536500D01*
X70010041Y-60518389D01*
X70054328Y-60509580D01*
X70181811Y-60456775D01*
X70296542Y-60380114D01*
X70394114Y-60282542D01*
X70470775Y-60167811D01*
X70523580Y-60040328D01*
X70533802Y-59988940D01*
X70550500Y-59904995D01*
X70550500Y-58967004D01*
X70523581Y-58831677D01*
X70523580Y-58831676D01*
X70523580Y-58831672D01*
X70513754Y-58807952D01*
X70506286Y-58738484D01*
X70537561Y-58676004D01*
X70597650Y-58640352D01*
X70628316Y-58636500D01*
X75615638Y-58636500D01*
X75682677Y-58656185D01*
X75703319Y-58672819D01*
X81261553Y-64231053D01*
X81295038Y-64292376D01*
X81297400Y-64307926D01*
X81316364Y-64524687D01*
X81316366Y-64524697D01*
X81375258Y-64744488D01*
X81375261Y-64744497D01*
X81471431Y-64950732D01*
X81471432Y-64950734D01*
X81601954Y-65137141D01*
X81762858Y-65298045D01*
X81762861Y-65298047D01*
X81949266Y-65428568D01*
X82155504Y-65524739D01*
X82155509Y-65524740D01*
X82155511Y-65524741D01*
X82178490Y-65530898D01*
X82375308Y-65583635D01*
X82537230Y-65597801D01*
X82601998Y-65603468D01*
X82602000Y-65603468D01*
X82602002Y-65603468D01*
X82658673Y-65598509D01*
X82828692Y-65583635D01*
X83048496Y-65524739D01*
X83254734Y-65428568D01*
X83441139Y-65298047D01*
X83504368Y-65234817D01*
X83565689Y-65201334D01*
X83592048Y-65198500D01*
X88111952Y-65198500D01*
X88178991Y-65218185D01*
X88199628Y-65234814D01*
X88239538Y-65274724D01*
X88262862Y-65298048D01*
X88296554Y-65321639D01*
X88449266Y-65428568D01*
X88655504Y-65524739D01*
X88655509Y-65524740D01*
X88655511Y-65524741D01*
X88678490Y-65530898D01*
X88875308Y-65583635D01*
X89037230Y-65597801D01*
X89101998Y-65603468D01*
X89102000Y-65603468D01*
X89102002Y-65603468D01*
X89158673Y-65598509D01*
X89328692Y-65583635D01*
X89548496Y-65524739D01*
X89754734Y-65428568D01*
X89941139Y-65298047D01*
X90102047Y-65137139D01*
X90232568Y-64950734D01*
X90328739Y-64744496D01*
X90387635Y-64524692D01*
X90407468Y-64298000D01*
X90387635Y-64071308D01*
X90328739Y-63851504D01*
X90232568Y-63645266D01*
X90102047Y-63458861D01*
X90102045Y-63458858D01*
X89941141Y-63297954D01*
X89754734Y-63167432D01*
X89754732Y-63167431D01*
X89548497Y-63071261D01*
X89548488Y-63071258D01*
X89328697Y-63012366D01*
X89328693Y-63012365D01*
X89328692Y-63012365D01*
X89328691Y-63012364D01*
X89328686Y-63012364D01*
X89102002Y-62992532D01*
X89101998Y-62992532D01*
X88875313Y-63012364D01*
X88875302Y-63012366D01*
X88655511Y-63071258D01*
X88655502Y-63071261D01*
X88449267Y-63167431D01*
X88449265Y-63167432D01*
X88262862Y-63297951D01*
X88231248Y-63329566D01*
X88199631Y-63361182D01*
X88138311Y-63394666D01*
X88111952Y-63397500D01*
X83592048Y-63397500D01*
X83525009Y-63377815D01*
X83504371Y-63361185D01*
X83441139Y-63297953D01*
X83441138Y-63297952D01*
X83441137Y-63297951D01*
X83254734Y-63167432D01*
X83254732Y-63167431D01*
X83048497Y-63071261D01*
X83048488Y-63071258D01*
X82828697Y-63012366D01*
X82828687Y-63012364D01*
X82611926Y-62993400D01*
X82546858Y-62967947D01*
X82535053Y-62957553D01*
X76614039Y-57036538D01*
X76614038Y-57036537D01*
X76594508Y-57023488D01*
X76536444Y-56984691D01*
X76536442Y-56984690D01*
X76536442Y-56984689D01*
X76466544Y-56937985D01*
X76466542Y-56937984D01*
X76384607Y-56904046D01*
X76384606Y-56904046D01*
X76302666Y-56870105D01*
X76302658Y-56870103D01*
X76128696Y-56835500D01*
X76128692Y-56835500D01*
X76128691Y-56835500D01*
X64018692Y-56835500D01*
X63841308Y-56835500D01*
X63841303Y-56835500D01*
X63667341Y-56870103D01*
X63667329Y-56870106D01*
X63585392Y-56904045D01*
X63585393Y-56904046D01*
X63503455Y-56937985D01*
X63433556Y-56984691D01*
X63433555Y-56984692D01*
X63355961Y-57036537D01*
X62050636Y-58341862D01*
X62010408Y-58368742D01*
X61898192Y-58415223D01*
X61898182Y-58415228D01*
X61783458Y-58491885D01*
X61783454Y-58491888D01*
X61685888Y-58589454D01*
X61685885Y-58589458D01*
X61609228Y-58704182D01*
X61609223Y-58704192D01*
X61562741Y-58816410D01*
X61535866Y-58856634D01*
X61530536Y-58861963D01*
X61530531Y-58861969D01*
X61431988Y-59009451D01*
X61364105Y-59173333D01*
X61364103Y-59173341D01*
X61329500Y-59347303D01*
X61329500Y-59502638D01*
X61309815Y-59569677D01*
X61257011Y-59615432D01*
X61187853Y-59625376D01*
X61124297Y-59596351D01*
X61117819Y-59590319D01*
X60384138Y-58856638D01*
X60357258Y-58816409D01*
X60310778Y-58704195D01*
X60310771Y-58704182D01*
X60234114Y-58589458D01*
X60234111Y-58589454D01*
X60136545Y-58491888D01*
X60136541Y-58491885D01*
X60021817Y-58415228D01*
X60021804Y-58415221D01*
X59894332Y-58362421D01*
X59894322Y-58362418D01*
X59758995Y-58335500D01*
X59758993Y-58335500D01*
X59621007Y-58335500D01*
X59621005Y-58335500D01*
X59485677Y-58362418D01*
X59485667Y-58362421D01*
X59358195Y-58415221D01*
X59358182Y-58415228D01*
X59243458Y-58491885D01*
X59243454Y-58491888D01*
X59145888Y-58589454D01*
X59145885Y-58589458D01*
X59069228Y-58704182D01*
X59069223Y-58704192D01*
X59022741Y-58816410D01*
X58995866Y-58856634D01*
X58990536Y-58861963D01*
X58990531Y-58861969D01*
X58891988Y-59009451D01*
X58824105Y-59173333D01*
X58824103Y-59173341D01*
X58789500Y-59347303D01*
X58050499Y-59347303D01*
X58015896Y-59173341D01*
X58015893Y-59173333D01*
X57992113Y-59115920D01*
X57948016Y-59009459D01*
X57948009Y-59009446D01*
X57849464Y-58861965D01*
X57849461Y-58861961D01*
X57844139Y-58856639D01*
X57817259Y-58816411D01*
X57770776Y-58704191D01*
X57770771Y-58704182D01*
X57694114Y-58589458D01*
X57694111Y-58589454D01*
X57596545Y-58491888D01*
X57596541Y-58491885D01*
X57481817Y-58415228D01*
X57481804Y-58415221D01*
X57354332Y-58362421D01*
X57354322Y-58362418D01*
X57218995Y-58335500D01*
X57218993Y-58335500D01*
X57081007Y-58335500D01*
X57081005Y-58335500D01*
X56945677Y-58362418D01*
X56945667Y-58362421D01*
X56818195Y-58415221D01*
X56818182Y-58415228D01*
X56703458Y-58491885D01*
X56703454Y-58491888D01*
X56605888Y-58589454D01*
X56605885Y-58589458D01*
X56529228Y-58704182D01*
X56529223Y-58704192D01*
X56482740Y-58816412D01*
X56455865Y-58856636D01*
X56450532Y-58861969D01*
X56351990Y-59009446D01*
X56351983Y-59009459D01*
X56284106Y-59173332D01*
X56284103Y-59173341D01*
X56249500Y-59347304D01*
X55310500Y-59347304D01*
X55310500Y-58967004D01*
X55283581Y-58831677D01*
X55283580Y-58831676D01*
X55283580Y-58831672D01*
X55277258Y-58816409D01*
X55230778Y-58704195D01*
X55230771Y-58704182D01*
X55154114Y-58589458D01*
X55154111Y-58589454D01*
X55056545Y-58491888D01*
X55056541Y-58491885D01*
X54941817Y-58415228D01*
X54941804Y-58415221D01*
X54814332Y-58362421D01*
X54814322Y-58362418D01*
X54678995Y-58335500D01*
X54678993Y-58335500D01*
X54541007Y-58335500D01*
X54541005Y-58335500D01*
X54405677Y-58362418D01*
X54405667Y-58362421D01*
X54278195Y-58415221D01*
X54278182Y-58415228D01*
X54163458Y-58491885D01*
X54163454Y-58491888D01*
X54065888Y-58589454D01*
X54065885Y-58589458D01*
X53989228Y-58704182D01*
X53989221Y-58704195D01*
X53936421Y-58831667D01*
X53936418Y-58831677D01*
X53909500Y-58967004D01*
X53909500Y-58967007D01*
X53909500Y-59904993D01*
X53909500Y-59904995D01*
X53909499Y-59904995D01*
X52839650Y-59904995D01*
X52868013Y-59862547D01*
X52935894Y-59698666D01*
X52939288Y-59681606D01*
X52970499Y-59524695D01*
X52970500Y-59524693D01*
X52970500Y-57905738D01*
X52990185Y-57838699D01*
X53003278Y-57821747D01*
X53004164Y-57820785D01*
X53140173Y-57612607D01*
X53240063Y-57384881D01*
X53301108Y-57143821D01*
X53301109Y-57143812D01*
X53321643Y-56896005D01*
X53321643Y-56895994D01*
X53301109Y-56648183D01*
X53301107Y-56648175D01*
X53240063Y-56407118D01*
X53140173Y-56179393D01*
X53004166Y-55971217D01*
X52982557Y-55947744D01*
X52835744Y-55788262D01*
X52639509Y-55635526D01*
X52639507Y-55635525D01*
X52639506Y-55635524D01*
X52420811Y-55517172D01*
X52420802Y-55517169D01*
X52185616Y-55436429D01*
X51940335Y-55395500D01*
X51691665Y-55395500D01*
X51446383Y-55436429D01*
X51211197Y-55517169D01*
X51211188Y-55517172D01*
X50992493Y-55635524D01*
X50796257Y-55788261D01*
X50627833Y-55971217D01*
X50491826Y-56179393D01*
X50391936Y-56407118D01*
X50330892Y-56648175D01*
X50330891Y-56648183D01*
X50310357Y-56895994D01*
X49160500Y-56895994D01*
X49160500Y-54804362D01*
X49180185Y-54737323D01*
X49196819Y-54716681D01*
X52201685Y-51711815D01*
X55244214Y-48669285D01*
X55305535Y-48635802D01*
X55375227Y-48640786D01*
X55431160Y-48682658D01*
X55455577Y-48748122D01*
X55455314Y-48761036D01*
X55455435Y-48761036D01*
X55455435Y-48768003D01*
X55475630Y-48947249D01*
X55475631Y-48947254D01*
X55535211Y-49117523D01*
X55599214Y-49219382D01*
X55631184Y-49270262D01*
X55758738Y-49397816D01*
X55775239Y-49408184D01*
X55888076Y-49479085D01*
X55911478Y-49493789D01*
X56081745Y-49553368D01*
X56081750Y-49553369D01*
X56260996Y-49573565D01*
X56261000Y-49573565D01*
X56261004Y-49573565D01*
X56440249Y-49553369D01*
X56440252Y-49553368D01*
X56440255Y-49553368D01*
X56610522Y-49493789D01*
X56633927Y-49479083D01*
X56639527Y-49475564D01*
X56706763Y-49456563D01*
X56771473Y-49475564D01*
X56800475Y-49493788D01*
X56970745Y-49553368D01*
X56970750Y-49553369D01*
X57149996Y-49573565D01*
X57150000Y-49573565D01*
X57150004Y-49573565D01*
X57329249Y-49553369D01*
X57329252Y-49553368D01*
X57329255Y-49553368D01*
X57499522Y-49493789D01*
X57522927Y-49479083D01*
X57592027Y-49435664D01*
X57659264Y-49416663D01*
X57723973Y-49435664D01*
X57816475Y-49493788D01*
X57986745Y-49553368D01*
X57986750Y-49553369D01*
X58165996Y-49573565D01*
X58166000Y-49573565D01*
X58166004Y-49573565D01*
X58345249Y-49553369D01*
X58345252Y-49553368D01*
X58345255Y-49553368D01*
X58515522Y-49493789D01*
X58668262Y-49397816D01*
X58795816Y-49270262D01*
X58855968Y-49174528D01*
X58908302Y-49128237D01*
X58960962Y-49116500D01*
X60237536Y-49116500D01*
X60304575Y-49136185D01*
X60350330Y-49188989D01*
X60360274Y-49258147D01*
X60331249Y-49321703D01*
X60303508Y-49345494D01*
X60203737Y-49408184D01*
X60076184Y-49535737D01*
X59980211Y-49688476D01*
X59920631Y-49858745D01*
X59920630Y-49858750D01*
X59900435Y-50037996D01*
X59900435Y-50038003D01*
X59920630Y-50217249D01*
X59920632Y-50217257D01*
X59937529Y-50265546D01*
X59941090Y-50335325D01*
X59906361Y-50395952D01*
X59844367Y-50428179D01*
X59820487Y-50430500D01*
X58719972Y-50430500D01*
X58679017Y-50423542D01*
X58599254Y-50395631D01*
X58599249Y-50395630D01*
X58420004Y-50375435D01*
X58419996Y-50375435D01*
X58240750Y-50395630D01*
X58240745Y-50395631D01*
X58070476Y-50455211D01*
X57917737Y-50551184D01*
X57790184Y-50678737D01*
X57694211Y-50831476D01*
X57634631Y-51001745D01*
X57634630Y-51001750D01*
X57614435Y-51180996D01*
X57614435Y-51181003D01*
X57634630Y-51360249D01*
X57634631Y-51360254D01*
X57694211Y-51530523D01*
X57774946Y-51659011D01*
X57790184Y-51683262D01*
X57917738Y-51810816D01*
X57973867Y-51846084D01*
X58063903Y-51902658D01*
X58070478Y-51906789D01*
X58240745Y-51966368D01*
X58240750Y-51966369D01*
X58419996Y-51986565D01*
X58420000Y-51986565D01*
X58420004Y-51986565D01*
X58599249Y-51966369D01*
X58599252Y-51966368D01*
X58599255Y-51966368D01*
X58679017Y-51938457D01*
X58719972Y-51931500D01*
X61026595Y-51931500D01*
X61093634Y-51951185D01*
X61139389Y-52003989D01*
X61149333Y-52073147D01*
X61126913Y-52128386D01*
X61034768Y-52255211D01*
X60956128Y-52409552D01*
X60902597Y-52574302D01*
X60875500Y-52745389D01*
X60875500Y-52918611D01*
X60902598Y-53089701D01*
X60956127Y-53254445D01*
X61034768Y-53408788D01*
X61083842Y-53476333D01*
X61116378Y-53521114D01*
X61139858Y-53586921D01*
X61124033Y-53654975D01*
X61116378Y-53666886D01*
X61034768Y-53779211D01*
X60956128Y-53933552D01*
X60902597Y-54098302D01*
X60890957Y-54171795D01*
X60875500Y-54269389D01*
X60875500Y-54442611D01*
X60902598Y-54613701D01*
X60956127Y-54778445D01*
X61034768Y-54932788D01*
X61136586Y-55072928D01*
X61259072Y-55195414D01*
X61399212Y-55297232D01*
X61553555Y-55375873D01*
X61718299Y-55429402D01*
X61889389Y-55456500D01*
X61889390Y-55456500D01*
X76286610Y-55456500D01*
X76286611Y-55456500D01*
X76457701Y-55429402D01*
X76622445Y-55375873D01*
X76776788Y-55297232D01*
X76786411Y-55290240D01*
X77619311Y-55290240D01*
X77707585Y-55344897D01*
X77897678Y-55418539D01*
X78098072Y-55456000D01*
X78301928Y-55456000D01*
X78502322Y-55418539D01*
X78692412Y-55344899D01*
X78692416Y-55344897D01*
X78780686Y-55290241D01*
X78780686Y-55290240D01*
X78200001Y-54709553D01*
X78200000Y-54709553D01*
X77619311Y-55290240D01*
X76786411Y-55290240D01*
X76804265Y-55277267D01*
X76862871Y-55254410D01*
X76869991Y-55253585D01*
X76972765Y-55208206D01*
X77052206Y-55128765D01*
X77097585Y-55025991D01*
X77097584Y-55025991D01*
X77101353Y-55017458D01*
X77103184Y-55018266D01*
X77133495Y-54968954D01*
X77196455Y-54938659D01*
X77225152Y-54937316D01*
X77262533Y-54939911D01*
X77905145Y-54297300D01*
X77900000Y-54316504D01*
X77900000Y-54395496D01*
X77920444Y-54471796D01*
X77959940Y-54540205D01*
X78015795Y-54596060D01*
X78084204Y-54635556D01*
X78160504Y-54656000D01*
X78239496Y-54656000D01*
X78315796Y-54635556D01*
X78384205Y-54596060D01*
X78440060Y-54540205D01*
X78479556Y-54471796D01*
X78500000Y-54395496D01*
X78500000Y-54356000D01*
X78553553Y-54356000D01*
X79137465Y-54939912D01*
X79139247Y-54937553D01*
X79139248Y-54937551D01*
X79230113Y-54755069D01*
X79230116Y-54755063D01*
X79285902Y-54558992D01*
X79285903Y-54558989D01*
X79304713Y-54356000D01*
X79304713Y-54355999D01*
X79285903Y-54153010D01*
X79285902Y-54153007D01*
X79230116Y-53956936D01*
X79230113Y-53956930D01*
X79139249Y-53774449D01*
X79139247Y-53774447D01*
X79137465Y-53772087D01*
X78553553Y-54356000D01*
X78500000Y-54356000D01*
X78500000Y-54316504D01*
X78479556Y-54240204D01*
X78440060Y-54171795D01*
X78384205Y-54115940D01*
X78315796Y-54076444D01*
X78239496Y-54056000D01*
X78160504Y-54056000D01*
X78141301Y-54061145D01*
X78200000Y-54002447D01*
X78780687Y-53421758D01*
X78692413Y-53367101D01*
X78692411Y-53367100D01*
X78502321Y-53293460D01*
X78301928Y-53256000D01*
X78098072Y-53256000D01*
X77897678Y-53293460D01*
X77707584Y-53367102D01*
X77534263Y-53474419D01*
X77508037Y-53498327D01*
X77445232Y-53528943D01*
X77375845Y-53520744D01*
X77321906Y-53476333D01*
X77300539Y-53409810D01*
X77300500Y-53406688D01*
X77300500Y-48963203D01*
X77320185Y-48896164D01*
X77336815Y-48875526D01*
X77539523Y-48672817D01*
X77600846Y-48639333D01*
X77627204Y-48636499D01*
X78212795Y-48636499D01*
X78279834Y-48656184D01*
X78300476Y-48672818D01*
X79803072Y-50175414D01*
X79943212Y-50277232D01*
X80011721Y-50312139D01*
X80097549Y-50355871D01*
X80097551Y-50355871D01*
X80097554Y-50355873D01*
X80262299Y-50409402D01*
X80433389Y-50436500D01*
X80433390Y-50436500D01*
X84163566Y-50436500D01*
X84163567Y-50436500D01*
X84334657Y-50409402D01*
X84499401Y-50355873D01*
X84653744Y-50277232D01*
X84793884Y-50175414D01*
X86419414Y-48549884D01*
X86521232Y-48409744D01*
X86580617Y-48293193D01*
X86628591Y-48242397D01*
X86696412Y-48225602D01*
X86762547Y-48248139D01*
X86765413Y-48250221D01*
X86995960Y-48422807D01*
X86995961Y-48422808D01*
X87247042Y-48559908D01*
X87247041Y-48559908D01*
X87515104Y-48659890D01*
X87794637Y-48720699D01*
X88079999Y-48741109D01*
X88080001Y-48741109D01*
X88365362Y-48720699D01*
X88644895Y-48659890D01*
X88912958Y-48559908D01*
X89164047Y-48422803D01*
X89306561Y-48316116D01*
X89306562Y-48316115D01*
X88411678Y-47421231D01*
X88439995Y-47409503D01*
X88564472Y-47326330D01*
X88670330Y-47220472D01*
X88753503Y-47095995D01*
X88765231Y-47067678D01*
X89660115Y-47962562D01*
X89660116Y-47962561D01*
X89766803Y-47820047D01*
X89903908Y-47568958D01*
X90003890Y-47300895D01*
X90064699Y-47021362D01*
X90085109Y-46736001D01*
X90085109Y-46735998D01*
X90064699Y-46450637D01*
X90003890Y-46171104D01*
X89903908Y-45903041D01*
X89766808Y-45651961D01*
X89766807Y-45651960D01*
X89660115Y-45509436D01*
X88765231Y-46404320D01*
X88753503Y-46376005D01*
X88670330Y-46251528D01*
X88564472Y-46145670D01*
X88439995Y-46062497D01*
X88411678Y-46050767D01*
X89306562Y-45155883D01*
X89306561Y-45155882D01*
X89164046Y-45049196D01*
X89164038Y-45049191D01*
X88912957Y-44912091D01*
X88912958Y-44912091D01*
X88644895Y-44812109D01*
X88365362Y-44751300D01*
X88080001Y-44730891D01*
X88079999Y-44730891D01*
X87794637Y-44751300D01*
X87515104Y-44812109D01*
X87247041Y-44912091D01*
X86995961Y-45049191D01*
X86995953Y-45049196D01*
X86853437Y-45155882D01*
X86853436Y-45155883D01*
X87748321Y-46050767D01*
X87720005Y-46062497D01*
X87595528Y-46145670D01*
X87489670Y-46251528D01*
X87406497Y-46376005D01*
X87394767Y-46404321D01*
X86708273Y-45717827D01*
X86674788Y-45656504D01*
X86673485Y-45649565D01*
X86653402Y-45522765D01*
X86649911Y-45512022D01*
X86633800Y-45462436D01*
X86601372Y-45362635D01*
X86600316Y-45358890D01*
X86599245Y-45356788D01*
X86521232Y-45203678D01*
X86419414Y-45063538D01*
X83012462Y-41656586D01*
X82872322Y-41554768D01*
X82717979Y-41476127D01*
X82553235Y-41422598D01*
X82553233Y-41422597D01*
X82553232Y-41422597D01*
X82421805Y-41401781D01*
X82382145Y-41395500D01*
X74938611Y-41395500D01*
X74765389Y-41395500D01*
X74725728Y-41401781D01*
X74594302Y-41422597D01*
X74429552Y-41476128D01*
X74275211Y-41554768D01*
X74242429Y-41578586D01*
X74135072Y-41656586D01*
X74135070Y-41656588D01*
X74135069Y-41656588D01*
X71296588Y-44495069D01*
X71296588Y-44495070D01*
X71296586Y-44495072D01*
X71266162Y-44536947D01*
X71194768Y-44635211D01*
X71116128Y-44789552D01*
X71062597Y-44954302D01*
X71035500Y-45125389D01*
X71035500Y-46175600D01*
X71015815Y-46242639D01*
X71002731Y-46259582D01*
X70947834Y-46319217D01*
X70811826Y-46527393D01*
X70711936Y-46755118D01*
X70650892Y-46996175D01*
X70650890Y-46996187D01*
X70630357Y-47243994D01*
X70630357Y-47244005D01*
X70650890Y-47491812D01*
X70650892Y-47491824D01*
X70711936Y-47732881D01*
X70811826Y-47960606D01*
X70947833Y-48168782D01*
X70961528Y-48183659D01*
X71116256Y-48351738D01*
X71312491Y-48504474D01*
X71531190Y-48622828D01*
X71766386Y-48703571D01*
X72011665Y-48744500D01*
X72260335Y-48744500D01*
X72505614Y-48703571D01*
X72740810Y-48622828D01*
X72959509Y-48504474D01*
X73155744Y-48351738D01*
X73324164Y-48168785D01*
X73347691Y-48132773D01*
X73400837Y-48087417D01*
X73470068Y-48077993D01*
X73533404Y-48107494D01*
X73570736Y-48166554D01*
X73575500Y-48200595D01*
X73575500Y-51607500D01*
X73555815Y-51674539D01*
X73503011Y-51720294D01*
X73451500Y-51731500D01*
X61897230Y-51731500D01*
X61830191Y-51711815D01*
X61784436Y-51659011D01*
X61774492Y-51589853D01*
X61803517Y-51526297D01*
X61809549Y-51519819D01*
X65080548Y-48248819D01*
X65141871Y-48215334D01*
X65168229Y-48212500D01*
X67637920Y-48212500D01*
X67735462Y-48193096D01*
X67782913Y-48183658D01*
X67919495Y-48127084D01*
X67997000Y-48075297D01*
X68033428Y-48050957D01*
X68042412Y-48044955D01*
X68042412Y-48044954D01*
X68042416Y-48044952D01*
X70432951Y-45654416D01*
X70515084Y-45531495D01*
X70518701Y-45522764D01*
X70533287Y-45487549D01*
X70571658Y-45394913D01*
X70589944Y-45302986D01*
X70600500Y-45249920D01*
X70600500Y-44122079D01*
X70571659Y-43977093D01*
X70571658Y-43977087D01*
X70559937Y-43948790D01*
X70550500Y-43901342D01*
X70550500Y-43727004D01*
X70523581Y-43591677D01*
X70523580Y-43591676D01*
X70523580Y-43591672D01*
X70523578Y-43591667D01*
X70470778Y-43464195D01*
X70470771Y-43464182D01*
X70394114Y-43349458D01*
X70394111Y-43349454D01*
X70296545Y-43251888D01*
X70296541Y-43251885D01*
X70181817Y-43175228D01*
X70181804Y-43175221D01*
X70054332Y-43122421D01*
X70054322Y-43122418D01*
X69918995Y-43095500D01*
X69918993Y-43095500D01*
X69781007Y-43095500D01*
X69781005Y-43095500D01*
X69645677Y-43122418D01*
X69645667Y-43122421D01*
X69518185Y-43175225D01*
X69512944Y-43178027D01*
X69444541Y-43192263D01*
X69379299Y-43167258D01*
X69337933Y-43110950D01*
X69330500Y-43068664D01*
X69330500Y-42852079D01*
X69301659Y-42707092D01*
X69301658Y-42707091D01*
X69301658Y-42707087D01*
X69258007Y-42601703D01*
X69245087Y-42570511D01*
X69245080Y-42570498D01*
X69162952Y-42447585D01*
X69111867Y-42396500D01*
X69058416Y-42343049D01*
X68800893Y-42085526D01*
X67927550Y-41212181D01*
X67894065Y-41150858D01*
X67899049Y-41081166D01*
X67940921Y-41025233D01*
X68006385Y-41000816D01*
X68015231Y-41000500D01*
X94875500Y-41000500D01*
X94942539Y-41020185D01*
X94988294Y-41072989D01*
X94999500Y-41124500D01*
X94999500Y-69875500D01*
X94979815Y-69942539D01*
X94927011Y-69988294D01*
X94875500Y-69999500D01*
X90001309Y-69999500D01*
X89934270Y-69979815D01*
X89913628Y-69963181D01*
X89272234Y-69321787D01*
X89314292Y-69310518D01*
X89439708Y-69238110D01*
X89542110Y-69135708D01*
X89614518Y-69010292D01*
X89625787Y-68968235D01*
X90325434Y-69667882D01*
X90425731Y-69514369D01*
X90525587Y-69286717D01*
X90586612Y-69045738D01*
X90586614Y-69045729D01*
X90607141Y-68798005D01*
X90607141Y-68797994D01*
X90586614Y-68550270D01*
X90586612Y-68550261D01*
X90525587Y-68309282D01*
X90425731Y-68081630D01*
X90325434Y-67928116D01*
X89625787Y-68627764D01*
X89614518Y-68585708D01*
X89542110Y-68460292D01*
X89439708Y-68357890D01*
X89314292Y-68285482D01*
X89272235Y-68274212D01*
X89972057Y-67574390D01*
X89972056Y-67574389D01*
X89925229Y-67537943D01*
X89706614Y-67419635D01*
X89706603Y-67419630D01*
X89471493Y-67338916D01*
X89226293Y-67298000D01*
X88977707Y-67298000D01*
X88732506Y-67338916D01*
X88497396Y-67419630D01*
X88497390Y-67419632D01*
X88278761Y-67537949D01*
X88231942Y-67574388D01*
X88231942Y-67574390D01*
X88931765Y-68274212D01*
X88889708Y-68285482D01*
X88764292Y-68357890D01*
X88661890Y-68460292D01*
X88589482Y-68585708D01*
X88578212Y-68627764D01*
X87878564Y-67928116D01*
X87778267Y-68081632D01*
X87678412Y-68309282D01*
X87617387Y-68550261D01*
X87617385Y-68550270D01*
X87596859Y-68797994D01*
X87596859Y-68798005D01*
X87617385Y-69045729D01*
X87617387Y-69045738D01*
X87678412Y-69286717D01*
X87778266Y-69514364D01*
X87878564Y-69667882D01*
X88578212Y-68968234D01*
X88589482Y-69010292D01*
X88661890Y-69135708D01*
X88764292Y-69238110D01*
X88889708Y-69310518D01*
X88931765Y-69321787D01*
X88290372Y-69963181D01*
X88229049Y-69996666D01*
X88202691Y-69999500D01*
X83501309Y-69999500D01*
X83434270Y-69979815D01*
X83413628Y-69963181D01*
X82772234Y-69321787D01*
X82814292Y-69310518D01*
X82939708Y-69238110D01*
X83042110Y-69135708D01*
X83114518Y-69010292D01*
X83125787Y-68968234D01*
X83825434Y-69667882D01*
X83925731Y-69514369D01*
X84025587Y-69286717D01*
X84086612Y-69045738D01*
X84086614Y-69045729D01*
X84107141Y-68798005D01*
X84107141Y-68797994D01*
X84086614Y-68550270D01*
X84086612Y-68550261D01*
X84025587Y-68309282D01*
X83925731Y-68081630D01*
X83825434Y-67928116D01*
X83125787Y-68627764D01*
X83114518Y-68585708D01*
X83042110Y-68460292D01*
X82939708Y-68357890D01*
X82814292Y-68285482D01*
X82772235Y-68274212D01*
X83472057Y-67574390D01*
X83472056Y-67574389D01*
X83425229Y-67537943D01*
X83206614Y-67419635D01*
X83206603Y-67419630D01*
X82971493Y-67338916D01*
X82726293Y-67298000D01*
X82477707Y-67298000D01*
X82232506Y-67338916D01*
X81997396Y-67419630D01*
X81997390Y-67419632D01*
X81778761Y-67537949D01*
X81731942Y-67574388D01*
X81731942Y-67574390D01*
X82431765Y-68274212D01*
X82389708Y-68285482D01*
X82264292Y-68357890D01*
X82161890Y-68460292D01*
X82089482Y-68585708D01*
X82078212Y-68627764D01*
X81378564Y-67928116D01*
X81278267Y-68081632D01*
X81178412Y-68309282D01*
X81117387Y-68550261D01*
X81117385Y-68550270D01*
X81096859Y-68797994D01*
X81096859Y-68798005D01*
X81117385Y-69045729D01*
X81117387Y-69045738D01*
X81178412Y-69286717D01*
X81278266Y-69514364D01*
X81378564Y-69667882D01*
X82078212Y-68968234D01*
X82089482Y-69010292D01*
X82161890Y-69135708D01*
X82264292Y-69238110D01*
X82389708Y-69310518D01*
X82431765Y-69321787D01*
X81790372Y-69963181D01*
X81729049Y-69996666D01*
X81702691Y-69999500D01*
X26124500Y-69999500D01*
X26057461Y-69979815D01*
X26011706Y-69927011D01*
X26000500Y-69875500D01*
X26000500Y-41124500D01*
X26020185Y-41057461D01*
X26072989Y-41011706D01*
X26124500Y-41000500D01*
X33307796Y-41000500D01*
X33374835Y-41020185D01*
G37*
%TD.AperFunction*%
%TD*%
M02*
