%TF.GenerationSoftware,KiCad,Pcbnew,8.0.4*%
%TF.CreationDate,2024-08-22T00:59:55+02:00*%
%TF.ProjectId,feed-selector-v2,66656564-2d73-4656-9c65-63746f722d76,rev?*%
%TF.SameCoordinates,Original*%
%TF.FileFunction,Legend,Top*%
%TF.FilePolarity,Positive*%
%FSLAX46Y46*%
G04 Gerber Fmt 4.6, Leading zero omitted, Abs format (unit mm)*
G04 Created by KiCad (PCBNEW 8.0.4) date 2024-08-22 00:59:55*
%MOMM*%
%LPD*%
G01*
G04 APERTURE LIST*
%ADD10C,0.100000*%
%ADD11C,0.150000*%
%ADD12C,0.120000*%
%ADD13C,0.000000*%
%ADD14C,0.152400*%
G04 APERTURE END LIST*
D10*
X84296762Y-53223561D02*
X84601524Y-53223561D01*
X84411048Y-53756895D02*
X84411048Y-53071180D01*
X84411048Y-53071180D02*
X84449143Y-52994990D01*
X84449143Y-52994990D02*
X84525333Y-52956895D01*
X84525333Y-52956895D02*
X84601524Y-52956895D01*
X85172953Y-53718800D02*
X85096762Y-53756895D01*
X85096762Y-53756895D02*
X84944381Y-53756895D01*
X84944381Y-53756895D02*
X84868191Y-53718800D01*
X84868191Y-53718800D02*
X84830095Y-53642609D01*
X84830095Y-53642609D02*
X84830095Y-53337847D01*
X84830095Y-53337847D02*
X84868191Y-53261657D01*
X84868191Y-53261657D02*
X84944381Y-53223561D01*
X84944381Y-53223561D02*
X85096762Y-53223561D01*
X85096762Y-53223561D02*
X85172953Y-53261657D01*
X85172953Y-53261657D02*
X85211048Y-53337847D01*
X85211048Y-53337847D02*
X85211048Y-53414038D01*
X85211048Y-53414038D02*
X84830095Y-53490228D01*
X85858667Y-53718800D02*
X85782476Y-53756895D01*
X85782476Y-53756895D02*
X85630095Y-53756895D01*
X85630095Y-53756895D02*
X85553905Y-53718800D01*
X85553905Y-53718800D02*
X85515809Y-53642609D01*
X85515809Y-53642609D02*
X85515809Y-53337847D01*
X85515809Y-53337847D02*
X85553905Y-53261657D01*
X85553905Y-53261657D02*
X85630095Y-53223561D01*
X85630095Y-53223561D02*
X85782476Y-53223561D01*
X85782476Y-53223561D02*
X85858667Y-53261657D01*
X85858667Y-53261657D02*
X85896762Y-53337847D01*
X85896762Y-53337847D02*
X85896762Y-53414038D01*
X85896762Y-53414038D02*
X85515809Y-53490228D01*
X86582476Y-53756895D02*
X86582476Y-52956895D01*
X86582476Y-53718800D02*
X86506285Y-53756895D01*
X86506285Y-53756895D02*
X86353904Y-53756895D01*
X86353904Y-53756895D02*
X86277714Y-53718800D01*
X86277714Y-53718800D02*
X86239619Y-53680704D01*
X86239619Y-53680704D02*
X86201523Y-53604514D01*
X86201523Y-53604514D02*
X86201523Y-53375942D01*
X86201523Y-53375942D02*
X86239619Y-53299752D01*
X86239619Y-53299752D02*
X86277714Y-53261657D01*
X86277714Y-53261657D02*
X86353904Y-53223561D01*
X86353904Y-53223561D02*
X86506285Y-53223561D01*
X86506285Y-53223561D02*
X86582476Y-53261657D01*
X86963429Y-53452133D02*
X87572953Y-53452133D01*
X87915809Y-53718800D02*
X87992000Y-53756895D01*
X87992000Y-53756895D02*
X88144381Y-53756895D01*
X88144381Y-53756895D02*
X88220571Y-53718800D01*
X88220571Y-53718800D02*
X88258667Y-53642609D01*
X88258667Y-53642609D02*
X88258667Y-53604514D01*
X88258667Y-53604514D02*
X88220571Y-53528323D01*
X88220571Y-53528323D02*
X88144381Y-53490228D01*
X88144381Y-53490228D02*
X88030095Y-53490228D01*
X88030095Y-53490228D02*
X87953905Y-53452133D01*
X87953905Y-53452133D02*
X87915809Y-53375942D01*
X87915809Y-53375942D02*
X87915809Y-53337847D01*
X87915809Y-53337847D02*
X87953905Y-53261657D01*
X87953905Y-53261657D02*
X88030095Y-53223561D01*
X88030095Y-53223561D02*
X88144381Y-53223561D01*
X88144381Y-53223561D02*
X88220571Y-53261657D01*
X88906286Y-53718800D02*
X88830095Y-53756895D01*
X88830095Y-53756895D02*
X88677714Y-53756895D01*
X88677714Y-53756895D02*
X88601524Y-53718800D01*
X88601524Y-53718800D02*
X88563428Y-53642609D01*
X88563428Y-53642609D02*
X88563428Y-53337847D01*
X88563428Y-53337847D02*
X88601524Y-53261657D01*
X88601524Y-53261657D02*
X88677714Y-53223561D01*
X88677714Y-53223561D02*
X88830095Y-53223561D01*
X88830095Y-53223561D02*
X88906286Y-53261657D01*
X88906286Y-53261657D02*
X88944381Y-53337847D01*
X88944381Y-53337847D02*
X88944381Y-53414038D01*
X88944381Y-53414038D02*
X88563428Y-53490228D01*
X89401523Y-53756895D02*
X89325333Y-53718800D01*
X89325333Y-53718800D02*
X89287238Y-53642609D01*
X89287238Y-53642609D02*
X89287238Y-52956895D01*
X90011048Y-53718800D02*
X89934857Y-53756895D01*
X89934857Y-53756895D02*
X89782476Y-53756895D01*
X89782476Y-53756895D02*
X89706286Y-53718800D01*
X89706286Y-53718800D02*
X89668190Y-53642609D01*
X89668190Y-53642609D02*
X89668190Y-53337847D01*
X89668190Y-53337847D02*
X89706286Y-53261657D01*
X89706286Y-53261657D02*
X89782476Y-53223561D01*
X89782476Y-53223561D02*
X89934857Y-53223561D01*
X89934857Y-53223561D02*
X90011048Y-53261657D01*
X90011048Y-53261657D02*
X90049143Y-53337847D01*
X90049143Y-53337847D02*
X90049143Y-53414038D01*
X90049143Y-53414038D02*
X89668190Y-53490228D01*
X90734857Y-53718800D02*
X90658666Y-53756895D01*
X90658666Y-53756895D02*
X90506285Y-53756895D01*
X90506285Y-53756895D02*
X90430095Y-53718800D01*
X90430095Y-53718800D02*
X90392000Y-53680704D01*
X90392000Y-53680704D02*
X90353904Y-53604514D01*
X90353904Y-53604514D02*
X90353904Y-53375942D01*
X90353904Y-53375942D02*
X90392000Y-53299752D01*
X90392000Y-53299752D02*
X90430095Y-53261657D01*
X90430095Y-53261657D02*
X90506285Y-53223561D01*
X90506285Y-53223561D02*
X90658666Y-53223561D01*
X90658666Y-53223561D02*
X90734857Y-53261657D01*
X90963428Y-53223561D02*
X91268190Y-53223561D01*
X91077714Y-52956895D02*
X91077714Y-53642609D01*
X91077714Y-53642609D02*
X91115809Y-53718800D01*
X91115809Y-53718800D02*
X91191999Y-53756895D01*
X91191999Y-53756895D02*
X91268190Y-53756895D01*
X91649142Y-53756895D02*
X91572952Y-53718800D01*
X91572952Y-53718800D02*
X91534857Y-53680704D01*
X91534857Y-53680704D02*
X91496761Y-53604514D01*
X91496761Y-53604514D02*
X91496761Y-53375942D01*
X91496761Y-53375942D02*
X91534857Y-53299752D01*
X91534857Y-53299752D02*
X91572952Y-53261657D01*
X91572952Y-53261657D02*
X91649142Y-53223561D01*
X91649142Y-53223561D02*
X91763428Y-53223561D01*
X91763428Y-53223561D02*
X91839619Y-53261657D01*
X91839619Y-53261657D02*
X91877714Y-53299752D01*
X91877714Y-53299752D02*
X91915809Y-53375942D01*
X91915809Y-53375942D02*
X91915809Y-53604514D01*
X91915809Y-53604514D02*
X91877714Y-53680704D01*
X91877714Y-53680704D02*
X91839619Y-53718800D01*
X91839619Y-53718800D02*
X91763428Y-53756895D01*
X91763428Y-53756895D02*
X91649142Y-53756895D01*
X92258667Y-53756895D02*
X92258667Y-53223561D01*
X92258667Y-53375942D02*
X92296762Y-53299752D01*
X92296762Y-53299752D02*
X92334857Y-53261657D01*
X92334857Y-53261657D02*
X92411048Y-53223561D01*
X92411048Y-53223561D02*
X92487238Y-53223561D01*
X84372951Y-54321040D02*
X84411047Y-54282945D01*
X84411047Y-54282945D02*
X84487237Y-54244850D01*
X84487237Y-54244850D02*
X84677713Y-54244850D01*
X84677713Y-54244850D02*
X84753904Y-54282945D01*
X84753904Y-54282945D02*
X84791999Y-54321040D01*
X84791999Y-54321040D02*
X84830094Y-54397231D01*
X84830094Y-54397231D02*
X84830094Y-54473421D01*
X84830094Y-54473421D02*
X84791999Y-54587707D01*
X84791999Y-54587707D02*
X84334856Y-55044850D01*
X84334856Y-55044850D02*
X84830094Y-55044850D01*
X85325333Y-54244850D02*
X85401523Y-54244850D01*
X85401523Y-54244850D02*
X85477714Y-54282945D01*
X85477714Y-54282945D02*
X85515809Y-54321040D01*
X85515809Y-54321040D02*
X85553904Y-54397231D01*
X85553904Y-54397231D02*
X85591999Y-54549612D01*
X85591999Y-54549612D02*
X85591999Y-54740088D01*
X85591999Y-54740088D02*
X85553904Y-54892469D01*
X85553904Y-54892469D02*
X85515809Y-54968659D01*
X85515809Y-54968659D02*
X85477714Y-55006755D01*
X85477714Y-55006755D02*
X85401523Y-55044850D01*
X85401523Y-55044850D02*
X85325333Y-55044850D01*
X85325333Y-55044850D02*
X85249142Y-55006755D01*
X85249142Y-55006755D02*
X85211047Y-54968659D01*
X85211047Y-54968659D02*
X85172952Y-54892469D01*
X85172952Y-54892469D02*
X85134856Y-54740088D01*
X85134856Y-54740088D02*
X85134856Y-54549612D01*
X85134856Y-54549612D02*
X85172952Y-54397231D01*
X85172952Y-54397231D02*
X85211047Y-54321040D01*
X85211047Y-54321040D02*
X85249142Y-54282945D01*
X85249142Y-54282945D02*
X85325333Y-54244850D01*
X85896761Y-54321040D02*
X85934857Y-54282945D01*
X85934857Y-54282945D02*
X86011047Y-54244850D01*
X86011047Y-54244850D02*
X86201523Y-54244850D01*
X86201523Y-54244850D02*
X86277714Y-54282945D01*
X86277714Y-54282945D02*
X86315809Y-54321040D01*
X86315809Y-54321040D02*
X86353904Y-54397231D01*
X86353904Y-54397231D02*
X86353904Y-54473421D01*
X86353904Y-54473421D02*
X86315809Y-54587707D01*
X86315809Y-54587707D02*
X85858666Y-55044850D01*
X85858666Y-55044850D02*
X86353904Y-55044850D01*
X87039619Y-54511516D02*
X87039619Y-55044850D01*
X86849143Y-54206755D02*
X86658666Y-54778183D01*
X86658666Y-54778183D02*
X87153905Y-54778183D01*
X87611048Y-54244850D02*
X87687238Y-54244850D01*
X87687238Y-54244850D02*
X87763429Y-54282945D01*
X87763429Y-54282945D02*
X87801524Y-54321040D01*
X87801524Y-54321040D02*
X87839619Y-54397231D01*
X87839619Y-54397231D02*
X87877714Y-54549612D01*
X87877714Y-54549612D02*
X87877714Y-54740088D01*
X87877714Y-54740088D02*
X87839619Y-54892469D01*
X87839619Y-54892469D02*
X87801524Y-54968659D01*
X87801524Y-54968659D02*
X87763429Y-55006755D01*
X87763429Y-55006755D02*
X87687238Y-55044850D01*
X87687238Y-55044850D02*
X87611048Y-55044850D01*
X87611048Y-55044850D02*
X87534857Y-55006755D01*
X87534857Y-55006755D02*
X87496762Y-54968659D01*
X87496762Y-54968659D02*
X87458667Y-54892469D01*
X87458667Y-54892469D02*
X87420571Y-54740088D01*
X87420571Y-54740088D02*
X87420571Y-54549612D01*
X87420571Y-54549612D02*
X87458667Y-54397231D01*
X87458667Y-54397231D02*
X87496762Y-54321040D01*
X87496762Y-54321040D02*
X87534857Y-54282945D01*
X87534857Y-54282945D02*
X87611048Y-54244850D01*
X88334857Y-54587707D02*
X88258667Y-54549612D01*
X88258667Y-54549612D02*
X88220572Y-54511516D01*
X88220572Y-54511516D02*
X88182476Y-54435326D01*
X88182476Y-54435326D02*
X88182476Y-54397231D01*
X88182476Y-54397231D02*
X88220572Y-54321040D01*
X88220572Y-54321040D02*
X88258667Y-54282945D01*
X88258667Y-54282945D02*
X88334857Y-54244850D01*
X88334857Y-54244850D02*
X88487238Y-54244850D01*
X88487238Y-54244850D02*
X88563429Y-54282945D01*
X88563429Y-54282945D02*
X88601524Y-54321040D01*
X88601524Y-54321040D02*
X88639619Y-54397231D01*
X88639619Y-54397231D02*
X88639619Y-54435326D01*
X88639619Y-54435326D02*
X88601524Y-54511516D01*
X88601524Y-54511516D02*
X88563429Y-54549612D01*
X88563429Y-54549612D02*
X88487238Y-54587707D01*
X88487238Y-54587707D02*
X88334857Y-54587707D01*
X88334857Y-54587707D02*
X88258667Y-54625802D01*
X88258667Y-54625802D02*
X88220572Y-54663897D01*
X88220572Y-54663897D02*
X88182476Y-54740088D01*
X88182476Y-54740088D02*
X88182476Y-54892469D01*
X88182476Y-54892469D02*
X88220572Y-54968659D01*
X88220572Y-54968659D02*
X88258667Y-55006755D01*
X88258667Y-55006755D02*
X88334857Y-55044850D01*
X88334857Y-55044850D02*
X88487238Y-55044850D01*
X88487238Y-55044850D02*
X88563429Y-55006755D01*
X88563429Y-55006755D02*
X88601524Y-54968659D01*
X88601524Y-54968659D02*
X88639619Y-54892469D01*
X88639619Y-54892469D02*
X88639619Y-54740088D01*
X88639619Y-54740088D02*
X88601524Y-54663897D01*
X88601524Y-54663897D02*
X88563429Y-54625802D01*
X88563429Y-54625802D02*
X88487238Y-54587707D01*
X88944381Y-54321040D02*
X88982477Y-54282945D01*
X88982477Y-54282945D02*
X89058667Y-54244850D01*
X89058667Y-54244850D02*
X89249143Y-54244850D01*
X89249143Y-54244850D02*
X89325334Y-54282945D01*
X89325334Y-54282945D02*
X89363429Y-54321040D01*
X89363429Y-54321040D02*
X89401524Y-54397231D01*
X89401524Y-54397231D02*
X89401524Y-54473421D01*
X89401524Y-54473421D02*
X89363429Y-54587707D01*
X89363429Y-54587707D02*
X88906286Y-55044850D01*
X88906286Y-55044850D02*
X89401524Y-55044850D01*
X89706286Y-54321040D02*
X89744382Y-54282945D01*
X89744382Y-54282945D02*
X89820572Y-54244850D01*
X89820572Y-54244850D02*
X90011048Y-54244850D01*
X90011048Y-54244850D02*
X90087239Y-54282945D01*
X90087239Y-54282945D02*
X90125334Y-54321040D01*
X90125334Y-54321040D02*
X90163429Y-54397231D01*
X90163429Y-54397231D02*
X90163429Y-54473421D01*
X90163429Y-54473421D02*
X90125334Y-54587707D01*
X90125334Y-54587707D02*
X89668191Y-55044850D01*
X89668191Y-55044850D02*
X90163429Y-55044850D01*
X90506287Y-54740088D02*
X91115811Y-54740088D01*
X91496763Y-55044850D02*
X91496763Y-54511516D01*
X91496763Y-54663897D02*
X91534858Y-54587707D01*
X91534858Y-54587707D02*
X91572953Y-54549612D01*
X91572953Y-54549612D02*
X91649144Y-54511516D01*
X91649144Y-54511516D02*
X91725334Y-54511516D01*
X92411048Y-55044850D02*
X91953905Y-55044850D01*
X92182477Y-55044850D02*
X92182477Y-54244850D01*
X92182477Y-54244850D02*
X92106286Y-54359135D01*
X92106286Y-54359135D02*
X92030096Y-54435326D01*
X92030096Y-54435326D02*
X91953905Y-54473421D01*
X84087236Y-56332805D02*
X84087236Y-55799471D01*
X84087236Y-55875662D02*
X84125331Y-55837567D01*
X84125331Y-55837567D02*
X84201521Y-55799471D01*
X84201521Y-55799471D02*
X84315807Y-55799471D01*
X84315807Y-55799471D02*
X84391998Y-55837567D01*
X84391998Y-55837567D02*
X84430093Y-55913757D01*
X84430093Y-55913757D02*
X84430093Y-56332805D01*
X84430093Y-55913757D02*
X84468188Y-55837567D01*
X84468188Y-55837567D02*
X84544379Y-55799471D01*
X84544379Y-55799471D02*
X84658664Y-55799471D01*
X84658664Y-55799471D02*
X84734855Y-55837567D01*
X84734855Y-55837567D02*
X84772950Y-55913757D01*
X84772950Y-55913757D02*
X84772950Y-56332805D01*
X85496760Y-56332805D02*
X85496760Y-55913757D01*
X85496760Y-55913757D02*
X85458665Y-55837567D01*
X85458665Y-55837567D02*
X85382474Y-55799471D01*
X85382474Y-55799471D02*
X85230093Y-55799471D01*
X85230093Y-55799471D02*
X85153903Y-55837567D01*
X85496760Y-56294710D02*
X85420569Y-56332805D01*
X85420569Y-56332805D02*
X85230093Y-56332805D01*
X85230093Y-56332805D02*
X85153903Y-56294710D01*
X85153903Y-56294710D02*
X85115807Y-56218519D01*
X85115807Y-56218519D02*
X85115807Y-56142329D01*
X85115807Y-56142329D02*
X85153903Y-56066138D01*
X85153903Y-56066138D02*
X85230093Y-56028043D01*
X85230093Y-56028043D02*
X85420569Y-56028043D01*
X85420569Y-56028043D02*
X85496760Y-55989948D01*
X85877713Y-56332805D02*
X85877713Y-55532805D01*
X86220570Y-56332805D02*
X86220570Y-55913757D01*
X86220570Y-55913757D02*
X86182475Y-55837567D01*
X86182475Y-55837567D02*
X86106284Y-55799471D01*
X86106284Y-55799471D02*
X85991998Y-55799471D01*
X85991998Y-55799471D02*
X85915808Y-55837567D01*
X85915808Y-55837567D02*
X85877713Y-55875662D01*
X86715808Y-56332805D02*
X86639618Y-56294710D01*
X86639618Y-56294710D02*
X86601523Y-56256614D01*
X86601523Y-56256614D02*
X86563427Y-56180424D01*
X86563427Y-56180424D02*
X86563427Y-55951852D01*
X86563427Y-55951852D02*
X86601523Y-55875662D01*
X86601523Y-55875662D02*
X86639618Y-55837567D01*
X86639618Y-55837567D02*
X86715808Y-55799471D01*
X86715808Y-55799471D02*
X86830094Y-55799471D01*
X86830094Y-55799471D02*
X86906285Y-55837567D01*
X86906285Y-55837567D02*
X86944380Y-55875662D01*
X86944380Y-55875662D02*
X86982475Y-55951852D01*
X86982475Y-55951852D02*
X86982475Y-56180424D01*
X86982475Y-56180424D02*
X86944380Y-56256614D01*
X86944380Y-56256614D02*
X86906285Y-56294710D01*
X86906285Y-56294710D02*
X86830094Y-56332805D01*
X86830094Y-56332805D02*
X86715808Y-56332805D01*
X87934857Y-56332805D02*
X87934857Y-55799471D01*
X87934857Y-55875662D02*
X87972952Y-55837567D01*
X87972952Y-55837567D02*
X88049142Y-55799471D01*
X88049142Y-55799471D02*
X88163428Y-55799471D01*
X88163428Y-55799471D02*
X88239619Y-55837567D01*
X88239619Y-55837567D02*
X88277714Y-55913757D01*
X88277714Y-55913757D02*
X88277714Y-56332805D01*
X88277714Y-55913757D02*
X88315809Y-55837567D01*
X88315809Y-55837567D02*
X88392000Y-55799471D01*
X88392000Y-55799471D02*
X88506285Y-55799471D01*
X88506285Y-55799471D02*
X88582476Y-55837567D01*
X88582476Y-55837567D02*
X88620571Y-55913757D01*
X88620571Y-55913757D02*
X88620571Y-56332805D01*
X89001524Y-56332805D02*
X89001524Y-55532805D01*
X89344381Y-56332805D02*
X89344381Y-55913757D01*
X89344381Y-55913757D02*
X89306286Y-55837567D01*
X89306286Y-55837567D02*
X89230095Y-55799471D01*
X89230095Y-55799471D02*
X89115809Y-55799471D01*
X89115809Y-55799471D02*
X89039619Y-55837567D01*
X89039619Y-55837567D02*
X89001524Y-55875662D01*
X89649143Y-55532805D02*
X90144381Y-55532805D01*
X90144381Y-55532805D02*
X89877715Y-55837567D01*
X89877715Y-55837567D02*
X89992000Y-55837567D01*
X89992000Y-55837567D02*
X90068191Y-55875662D01*
X90068191Y-55875662D02*
X90106286Y-55913757D01*
X90106286Y-55913757D02*
X90144381Y-55989948D01*
X90144381Y-55989948D02*
X90144381Y-56180424D01*
X90144381Y-56180424D02*
X90106286Y-56256614D01*
X90106286Y-56256614D02*
X90068191Y-56294710D01*
X90068191Y-56294710D02*
X89992000Y-56332805D01*
X89992000Y-56332805D02*
X89763429Y-56332805D01*
X89763429Y-56332805D02*
X89687238Y-56294710D01*
X89687238Y-56294710D02*
X89649143Y-56256614D01*
X90639620Y-55532805D02*
X90715810Y-55532805D01*
X90715810Y-55532805D02*
X90792001Y-55570900D01*
X90792001Y-55570900D02*
X90830096Y-55608995D01*
X90830096Y-55608995D02*
X90868191Y-55685186D01*
X90868191Y-55685186D02*
X90906286Y-55837567D01*
X90906286Y-55837567D02*
X90906286Y-56028043D01*
X90906286Y-56028043D02*
X90868191Y-56180424D01*
X90868191Y-56180424D02*
X90830096Y-56256614D01*
X90830096Y-56256614D02*
X90792001Y-56294710D01*
X90792001Y-56294710D02*
X90715810Y-56332805D01*
X90715810Y-56332805D02*
X90639620Y-56332805D01*
X90639620Y-56332805D02*
X90563429Y-56294710D01*
X90563429Y-56294710D02*
X90525334Y-56256614D01*
X90525334Y-56256614D02*
X90487239Y-56180424D01*
X90487239Y-56180424D02*
X90449143Y-56028043D01*
X90449143Y-56028043D02*
X90449143Y-55837567D01*
X90449143Y-55837567D02*
X90487239Y-55685186D01*
X90487239Y-55685186D02*
X90525334Y-55608995D01*
X90525334Y-55608995D02*
X90563429Y-55570900D01*
X90563429Y-55570900D02*
X90639620Y-55532805D01*
X91401525Y-55532805D02*
X91477715Y-55532805D01*
X91477715Y-55532805D02*
X91553906Y-55570900D01*
X91553906Y-55570900D02*
X91592001Y-55608995D01*
X91592001Y-55608995D02*
X91630096Y-55685186D01*
X91630096Y-55685186D02*
X91668191Y-55837567D01*
X91668191Y-55837567D02*
X91668191Y-56028043D01*
X91668191Y-56028043D02*
X91630096Y-56180424D01*
X91630096Y-56180424D02*
X91592001Y-56256614D01*
X91592001Y-56256614D02*
X91553906Y-56294710D01*
X91553906Y-56294710D02*
X91477715Y-56332805D01*
X91477715Y-56332805D02*
X91401525Y-56332805D01*
X91401525Y-56332805D02*
X91325334Y-56294710D01*
X91325334Y-56294710D02*
X91287239Y-56256614D01*
X91287239Y-56256614D02*
X91249144Y-56180424D01*
X91249144Y-56180424D02*
X91211048Y-56028043D01*
X91211048Y-56028043D02*
X91211048Y-55837567D01*
X91211048Y-55837567D02*
X91249144Y-55685186D01*
X91249144Y-55685186D02*
X91287239Y-55608995D01*
X91287239Y-55608995D02*
X91325334Y-55570900D01*
X91325334Y-55570900D02*
X91401525Y-55532805D01*
X92011049Y-56332805D02*
X92011049Y-55799471D01*
X92011049Y-55875662D02*
X92049144Y-55837567D01*
X92049144Y-55837567D02*
X92125334Y-55799471D01*
X92125334Y-55799471D02*
X92239620Y-55799471D01*
X92239620Y-55799471D02*
X92315811Y-55837567D01*
X92315811Y-55837567D02*
X92353906Y-55913757D01*
X92353906Y-55913757D02*
X92353906Y-56332805D01*
X92353906Y-55913757D02*
X92392001Y-55837567D01*
X92392001Y-55837567D02*
X92468192Y-55799471D01*
X92468192Y-55799471D02*
X92582477Y-55799471D01*
X92582477Y-55799471D02*
X92658668Y-55837567D01*
X92658668Y-55837567D02*
X92696763Y-55913757D01*
X92696763Y-55913757D02*
X92696763Y-56332805D01*
X84144379Y-57582665D02*
X84220570Y-57620760D01*
X84220570Y-57620760D02*
X84372951Y-57620760D01*
X84372951Y-57620760D02*
X84449141Y-57582665D01*
X84449141Y-57582665D02*
X84487237Y-57506474D01*
X84487237Y-57506474D02*
X84487237Y-57468379D01*
X84487237Y-57468379D02*
X84449141Y-57392188D01*
X84449141Y-57392188D02*
X84372951Y-57354093D01*
X84372951Y-57354093D02*
X84258665Y-57354093D01*
X84258665Y-57354093D02*
X84182475Y-57315998D01*
X84182475Y-57315998D02*
X84144379Y-57239807D01*
X84144379Y-57239807D02*
X84144379Y-57201712D01*
X84144379Y-57201712D02*
X84182475Y-57125522D01*
X84182475Y-57125522D02*
X84258665Y-57087426D01*
X84258665Y-57087426D02*
X84372951Y-57087426D01*
X84372951Y-57087426D02*
X84449141Y-57125522D01*
X84944379Y-57620760D02*
X84868189Y-57582665D01*
X84868189Y-57582665D02*
X84830094Y-57506474D01*
X84830094Y-57506474D02*
X84830094Y-56820760D01*
X85591999Y-57620760D02*
X85591999Y-57201712D01*
X85591999Y-57201712D02*
X85553904Y-57125522D01*
X85553904Y-57125522D02*
X85477713Y-57087426D01*
X85477713Y-57087426D02*
X85325332Y-57087426D01*
X85325332Y-57087426D02*
X85249142Y-57125522D01*
X85591999Y-57582665D02*
X85515808Y-57620760D01*
X85515808Y-57620760D02*
X85325332Y-57620760D01*
X85325332Y-57620760D02*
X85249142Y-57582665D01*
X85249142Y-57582665D02*
X85211046Y-57506474D01*
X85211046Y-57506474D02*
X85211046Y-57430284D01*
X85211046Y-57430284D02*
X85249142Y-57354093D01*
X85249142Y-57354093D02*
X85325332Y-57315998D01*
X85325332Y-57315998D02*
X85515808Y-57315998D01*
X85515808Y-57315998D02*
X85591999Y-57277903D01*
X85896761Y-57087426D02*
X86049142Y-57620760D01*
X86049142Y-57620760D02*
X86201523Y-57239807D01*
X86201523Y-57239807D02*
X86353904Y-57620760D01*
X86353904Y-57620760D02*
X86506285Y-57087426D01*
X87115809Y-57582665D02*
X87039618Y-57620760D01*
X87039618Y-57620760D02*
X86887237Y-57620760D01*
X86887237Y-57620760D02*
X86811047Y-57582665D01*
X86811047Y-57582665D02*
X86772951Y-57506474D01*
X86772951Y-57506474D02*
X86772951Y-57201712D01*
X86772951Y-57201712D02*
X86811047Y-57125522D01*
X86811047Y-57125522D02*
X86887237Y-57087426D01*
X86887237Y-57087426D02*
X87039618Y-57087426D01*
X87039618Y-57087426D02*
X87115809Y-57125522D01*
X87115809Y-57125522D02*
X87153904Y-57201712D01*
X87153904Y-57201712D02*
X87153904Y-57277903D01*
X87153904Y-57277903D02*
X86772951Y-57354093D01*
X87496761Y-57620760D02*
X87496761Y-56820760D01*
X87572951Y-57315998D02*
X87801523Y-57620760D01*
X87801523Y-57087426D02*
X87496761Y-57392188D01*
X88487237Y-57087426D02*
X88487237Y-57735045D01*
X88487237Y-57735045D02*
X88449142Y-57811236D01*
X88449142Y-57811236D02*
X88411046Y-57849331D01*
X88411046Y-57849331D02*
X88334856Y-57887426D01*
X88334856Y-57887426D02*
X88220570Y-57887426D01*
X88220570Y-57887426D02*
X88144380Y-57849331D01*
X88487237Y-57582665D02*
X88411046Y-57620760D01*
X88411046Y-57620760D02*
X88258665Y-57620760D01*
X88258665Y-57620760D02*
X88182475Y-57582665D01*
X88182475Y-57582665D02*
X88144380Y-57544569D01*
X88144380Y-57544569D02*
X88106284Y-57468379D01*
X88106284Y-57468379D02*
X88106284Y-57239807D01*
X88106284Y-57239807D02*
X88144380Y-57163617D01*
X88144380Y-57163617D02*
X88182475Y-57125522D01*
X88182475Y-57125522D02*
X88258665Y-57087426D01*
X88258665Y-57087426D02*
X88411046Y-57087426D01*
X88411046Y-57087426D02*
X88487237Y-57125522D01*
X88982475Y-57620760D02*
X88906285Y-57582665D01*
X88906285Y-57582665D02*
X88868190Y-57544569D01*
X88868190Y-57544569D02*
X88830094Y-57468379D01*
X88830094Y-57468379D02*
X88830094Y-57239807D01*
X88830094Y-57239807D02*
X88868190Y-57163617D01*
X88868190Y-57163617D02*
X88906285Y-57125522D01*
X88906285Y-57125522D02*
X88982475Y-57087426D01*
X88982475Y-57087426D02*
X89096761Y-57087426D01*
X89096761Y-57087426D02*
X89172952Y-57125522D01*
X89172952Y-57125522D02*
X89211047Y-57163617D01*
X89211047Y-57163617D02*
X89249142Y-57239807D01*
X89249142Y-57239807D02*
X89249142Y-57468379D01*
X89249142Y-57468379D02*
X89211047Y-57544569D01*
X89211047Y-57544569D02*
X89172952Y-57582665D01*
X89172952Y-57582665D02*
X89096761Y-57620760D01*
X89096761Y-57620760D02*
X88982475Y-57620760D01*
X89592000Y-57087426D02*
X89592000Y-57620760D01*
X89592000Y-57163617D02*
X89630095Y-57125522D01*
X89630095Y-57125522D02*
X89706285Y-57087426D01*
X89706285Y-57087426D02*
X89820571Y-57087426D01*
X89820571Y-57087426D02*
X89896762Y-57125522D01*
X89896762Y-57125522D02*
X89934857Y-57201712D01*
X89934857Y-57201712D02*
X89934857Y-57620760D01*
X90620572Y-57582665D02*
X90544381Y-57620760D01*
X90544381Y-57620760D02*
X90392000Y-57620760D01*
X90392000Y-57620760D02*
X90315810Y-57582665D01*
X90315810Y-57582665D02*
X90277714Y-57506474D01*
X90277714Y-57506474D02*
X90277714Y-57201712D01*
X90277714Y-57201712D02*
X90315810Y-57125522D01*
X90315810Y-57125522D02*
X90392000Y-57087426D01*
X90392000Y-57087426D02*
X90544381Y-57087426D01*
X90544381Y-57087426D02*
X90620572Y-57125522D01*
X90620572Y-57125522D02*
X90658667Y-57201712D01*
X90658667Y-57201712D02*
X90658667Y-57277903D01*
X90658667Y-57277903D02*
X90277714Y-57354093D01*
X90887238Y-57087426D02*
X91192000Y-57087426D01*
X91001524Y-56820760D02*
X91001524Y-57506474D01*
X91001524Y-57506474D02*
X91039619Y-57582665D01*
X91039619Y-57582665D02*
X91115809Y-57620760D01*
X91115809Y-57620760D02*
X91192000Y-57620760D01*
X91458667Y-57544569D02*
X91496762Y-57582665D01*
X91496762Y-57582665D02*
X91458667Y-57620760D01*
X91458667Y-57620760D02*
X91420571Y-57582665D01*
X91420571Y-57582665D02*
X91458667Y-57544569D01*
X91458667Y-57544569D02*
X91458667Y-57620760D01*
X91839619Y-57087426D02*
X91839619Y-57887426D01*
X91839619Y-57125522D02*
X91915809Y-57087426D01*
X91915809Y-57087426D02*
X92068190Y-57087426D01*
X92068190Y-57087426D02*
X92144381Y-57125522D01*
X92144381Y-57125522D02*
X92182476Y-57163617D01*
X92182476Y-57163617D02*
X92220571Y-57239807D01*
X92220571Y-57239807D02*
X92220571Y-57468379D01*
X92220571Y-57468379D02*
X92182476Y-57544569D01*
X92182476Y-57544569D02*
X92144381Y-57582665D01*
X92144381Y-57582665D02*
X92068190Y-57620760D01*
X92068190Y-57620760D02*
X91915809Y-57620760D01*
X91915809Y-57620760D02*
X91839619Y-57582665D01*
X92677714Y-57620760D02*
X92601524Y-57582665D01*
X92601524Y-57582665D02*
X92563429Y-57506474D01*
X92563429Y-57506474D02*
X92563429Y-56820760D01*
X82804000Y-52324000D02*
X83904000Y-52324000D01*
X84304000Y-52324000D02*
X85404000Y-52324000D01*
X85804000Y-52324000D02*
X86904000Y-52324000D01*
X87304000Y-52324000D02*
X88404000Y-52324000D01*
X88804000Y-52324000D02*
X89904000Y-52324000D01*
X90304000Y-52324000D02*
X91404000Y-52324000D01*
X91804000Y-52324000D02*
X92904000Y-52324000D01*
X93304000Y-52324000D02*
X93980000Y-52324000D01*
X93980000Y-52324000D02*
X93980000Y-53424000D01*
X93980000Y-53824000D02*
X93980000Y-54924000D01*
X93980000Y-55324000D02*
X93980000Y-56424000D01*
X93980000Y-56824000D02*
X93980000Y-57924000D01*
X93980000Y-58324000D02*
X93980000Y-58420000D01*
X93980000Y-58420000D02*
X92880000Y-58420000D01*
X92480000Y-58420000D02*
X91380000Y-58420000D01*
X90980000Y-58420000D02*
X89880000Y-58420000D01*
X89480000Y-58420000D02*
X88380000Y-58420000D01*
X87980000Y-58420000D02*
X86880000Y-58420000D01*
X86480000Y-58420000D02*
X85380000Y-58420000D01*
X84980000Y-58420000D02*
X83880000Y-58420000D01*
X83480000Y-58420000D02*
X82804000Y-58420000D01*
X82804000Y-58420000D02*
X82804000Y-57320000D01*
X82804000Y-56920000D02*
X82804000Y-55820000D01*
X82804000Y-55420000D02*
X82804000Y-54320000D01*
X82804000Y-53920000D02*
X82804000Y-52820000D01*
X82804000Y-52420000D02*
X82804000Y-52324000D01*
D11*
X40264819Y-55530284D02*
X39264819Y-55530284D01*
X39264819Y-55530284D02*
X39264819Y-55149332D01*
X39264819Y-55149332D02*
X39312438Y-55054094D01*
X39312438Y-55054094D02*
X39360057Y-55006475D01*
X39360057Y-55006475D02*
X39455295Y-54958856D01*
X39455295Y-54958856D02*
X39598152Y-54958856D01*
X39598152Y-54958856D02*
X39693390Y-55006475D01*
X39693390Y-55006475D02*
X39741009Y-55054094D01*
X39741009Y-55054094D02*
X39788628Y-55149332D01*
X39788628Y-55149332D02*
X39788628Y-55530284D01*
X40264819Y-53958856D02*
X39788628Y-54292189D01*
X40264819Y-54530284D02*
X39264819Y-54530284D01*
X39264819Y-54530284D02*
X39264819Y-54149332D01*
X39264819Y-54149332D02*
X39312438Y-54054094D01*
X39312438Y-54054094D02*
X39360057Y-54006475D01*
X39360057Y-54006475D02*
X39455295Y-53958856D01*
X39455295Y-53958856D02*
X39598152Y-53958856D01*
X39598152Y-53958856D02*
X39693390Y-54006475D01*
X39693390Y-54006475D02*
X39741009Y-54054094D01*
X39741009Y-54054094D02*
X39788628Y-54149332D01*
X39788628Y-54149332D02*
X39788628Y-54530284D01*
X39264819Y-53339808D02*
X39264819Y-53149332D01*
X39264819Y-53149332D02*
X39312438Y-53054094D01*
X39312438Y-53054094D02*
X39407676Y-52958856D01*
X39407676Y-52958856D02*
X39598152Y-52911237D01*
X39598152Y-52911237D02*
X39931485Y-52911237D01*
X39931485Y-52911237D02*
X40121961Y-52958856D01*
X40121961Y-52958856D02*
X40217200Y-53054094D01*
X40217200Y-53054094D02*
X40264819Y-53149332D01*
X40264819Y-53149332D02*
X40264819Y-53339808D01*
X40264819Y-53339808D02*
X40217200Y-53435046D01*
X40217200Y-53435046D02*
X40121961Y-53530284D01*
X40121961Y-53530284D02*
X39931485Y-53577903D01*
X39931485Y-53577903D02*
X39598152Y-53577903D01*
X39598152Y-53577903D02*
X39407676Y-53530284D01*
X39407676Y-53530284D02*
X39312438Y-53435046D01*
X39312438Y-53435046D02*
X39264819Y-53339808D01*
X40360057Y-52720761D02*
X40360057Y-51958856D01*
X40264819Y-51720760D02*
X39264819Y-51720760D01*
X39264819Y-51720760D02*
X39979104Y-51387427D01*
X39979104Y-51387427D02*
X39264819Y-51054094D01*
X39264819Y-51054094D02*
X40264819Y-51054094D01*
X40264819Y-50577903D02*
X39264819Y-50577903D01*
X40264819Y-50101713D02*
X39264819Y-50101713D01*
X39264819Y-50101713D02*
X40264819Y-49530285D01*
X40264819Y-49530285D02*
X39264819Y-49530285D01*
X40264819Y-49054094D02*
X39264819Y-49054094D01*
X40264819Y-48054095D02*
X40264819Y-48625523D01*
X40264819Y-48339809D02*
X39264819Y-48339809D01*
X39264819Y-48339809D02*
X39407676Y-48435047D01*
X39407676Y-48435047D02*
X39502914Y-48530285D01*
X39502914Y-48530285D02*
X39550533Y-48625523D01*
X80097333Y-56239580D02*
X80049714Y-56287200D01*
X80049714Y-56287200D02*
X79906857Y-56334819D01*
X79906857Y-56334819D02*
X79811619Y-56334819D01*
X79811619Y-56334819D02*
X79668762Y-56287200D01*
X79668762Y-56287200D02*
X79573524Y-56191961D01*
X79573524Y-56191961D02*
X79525905Y-56096723D01*
X79525905Y-56096723D02*
X79478286Y-55906247D01*
X79478286Y-55906247D02*
X79478286Y-55763390D01*
X79478286Y-55763390D02*
X79525905Y-55572914D01*
X79525905Y-55572914D02*
X79573524Y-55477676D01*
X79573524Y-55477676D02*
X79668762Y-55382438D01*
X79668762Y-55382438D02*
X79811619Y-55334819D01*
X79811619Y-55334819D02*
X79906857Y-55334819D01*
X79906857Y-55334819D02*
X80049714Y-55382438D01*
X80049714Y-55382438D02*
X80097333Y-55430057D01*
X81049714Y-56334819D02*
X80478286Y-56334819D01*
X80764000Y-56334819D02*
X80764000Y-55334819D01*
X80764000Y-55334819D02*
X80668762Y-55477676D01*
X80668762Y-55477676D02*
X80573524Y-55572914D01*
X80573524Y-55572914D02*
X80478286Y-55620533D01*
X66742666Y-68962819D02*
X66742666Y-69677104D01*
X66742666Y-69677104D02*
X66695047Y-69819961D01*
X66695047Y-69819961D02*
X66599809Y-69915200D01*
X66599809Y-69915200D02*
X66456952Y-69962819D01*
X66456952Y-69962819D02*
X66361714Y-69962819D01*
X67742666Y-69962819D02*
X67171238Y-69962819D01*
X67456952Y-69962819D02*
X67456952Y-68962819D01*
X67456952Y-68962819D02*
X67361714Y-69105676D01*
X67361714Y-69105676D02*
X67266476Y-69200914D01*
X67266476Y-69200914D02*
X67171238Y-69248533D01*
X62790285Y-62157580D02*
X62742666Y-62205200D01*
X62742666Y-62205200D02*
X62599809Y-62252819D01*
X62599809Y-62252819D02*
X62504571Y-62252819D01*
X62504571Y-62252819D02*
X62361714Y-62205200D01*
X62361714Y-62205200D02*
X62266476Y-62109961D01*
X62266476Y-62109961D02*
X62218857Y-62014723D01*
X62218857Y-62014723D02*
X62171238Y-61824247D01*
X62171238Y-61824247D02*
X62171238Y-61681390D01*
X62171238Y-61681390D02*
X62218857Y-61490914D01*
X62218857Y-61490914D02*
X62266476Y-61395676D01*
X62266476Y-61395676D02*
X62361714Y-61300438D01*
X62361714Y-61300438D02*
X62504571Y-61252819D01*
X62504571Y-61252819D02*
X62599809Y-61252819D01*
X62599809Y-61252819D02*
X62742666Y-61300438D01*
X62742666Y-61300438D02*
X62790285Y-61348057D01*
X63790285Y-62252819D02*
X63456952Y-61776628D01*
X63218857Y-62252819D02*
X63218857Y-61252819D01*
X63218857Y-61252819D02*
X63599809Y-61252819D01*
X63599809Y-61252819D02*
X63695047Y-61300438D01*
X63695047Y-61300438D02*
X63742666Y-61348057D01*
X63742666Y-61348057D02*
X63790285Y-61443295D01*
X63790285Y-61443295D02*
X63790285Y-61586152D01*
X63790285Y-61586152D02*
X63742666Y-61681390D01*
X63742666Y-61681390D02*
X63695047Y-61729009D01*
X63695047Y-61729009D02*
X63599809Y-61776628D01*
X63599809Y-61776628D02*
X63218857Y-61776628D01*
X64218857Y-61729009D02*
X64552190Y-61729009D01*
X64695047Y-62252819D02*
X64218857Y-62252819D01*
X64218857Y-62252819D02*
X64218857Y-61252819D01*
X64218857Y-61252819D02*
X64695047Y-61252819D01*
X65123619Y-61729009D02*
X65456952Y-61729009D01*
X65599809Y-62252819D02*
X65123619Y-62252819D01*
X65123619Y-62252819D02*
X65123619Y-61252819D01*
X65123619Y-61252819D02*
X65599809Y-61252819D01*
X66028381Y-62252819D02*
X66028381Y-61252819D01*
X66028381Y-61252819D02*
X66409333Y-61252819D01*
X66409333Y-61252819D02*
X66504571Y-61300438D01*
X66504571Y-61300438D02*
X66552190Y-61348057D01*
X66552190Y-61348057D02*
X66599809Y-61443295D01*
X66599809Y-61443295D02*
X66599809Y-61586152D01*
X66599809Y-61586152D02*
X66552190Y-61681390D01*
X66552190Y-61681390D02*
X66504571Y-61729009D01*
X66504571Y-61729009D02*
X66409333Y-61776628D01*
X66409333Y-61776628D02*
X66028381Y-61776628D01*
X67742666Y-61205200D02*
X66885524Y-62490914D01*
X68647428Y-62252819D02*
X68314095Y-61776628D01*
X68076000Y-62252819D02*
X68076000Y-61252819D01*
X68076000Y-61252819D02*
X68456952Y-61252819D01*
X68456952Y-61252819D02*
X68552190Y-61300438D01*
X68552190Y-61300438D02*
X68599809Y-61348057D01*
X68599809Y-61348057D02*
X68647428Y-61443295D01*
X68647428Y-61443295D02*
X68647428Y-61586152D01*
X68647428Y-61586152D02*
X68599809Y-61681390D01*
X68599809Y-61681390D02*
X68552190Y-61729009D01*
X68552190Y-61729009D02*
X68456952Y-61776628D01*
X68456952Y-61776628D02*
X68076000Y-61776628D01*
X69028381Y-61967104D02*
X69504571Y-61967104D01*
X68933143Y-62252819D02*
X69266476Y-61252819D01*
X69266476Y-61252819D02*
X69599809Y-62252819D01*
X69933143Y-62252819D02*
X69933143Y-61252819D01*
X69933143Y-61252819D02*
X70314095Y-61252819D01*
X70314095Y-61252819D02*
X70409333Y-61300438D01*
X70409333Y-61300438D02*
X70456952Y-61348057D01*
X70456952Y-61348057D02*
X70504571Y-61443295D01*
X70504571Y-61443295D02*
X70504571Y-61586152D01*
X70504571Y-61586152D02*
X70456952Y-61681390D01*
X70456952Y-61681390D02*
X70409333Y-61729009D01*
X70409333Y-61729009D02*
X70314095Y-61776628D01*
X70314095Y-61776628D02*
X69933143Y-61776628D01*
X70933143Y-62252819D02*
X70933143Y-61252819D01*
X71409333Y-62252819D02*
X71409333Y-61252819D01*
X71409333Y-61252819D02*
X71647428Y-61252819D01*
X71647428Y-61252819D02*
X71790285Y-61300438D01*
X71790285Y-61300438D02*
X71885523Y-61395676D01*
X71885523Y-61395676D02*
X71933142Y-61490914D01*
X71933142Y-61490914D02*
X71980761Y-61681390D01*
X71980761Y-61681390D02*
X71980761Y-61824247D01*
X71980761Y-61824247D02*
X71933142Y-62014723D01*
X71933142Y-62014723D02*
X71885523Y-62109961D01*
X71885523Y-62109961D02*
X71790285Y-62205200D01*
X71790285Y-62205200D02*
X71647428Y-62252819D01*
X71647428Y-62252819D02*
X71409333Y-62252819D01*
X47966666Y-68962819D02*
X47966666Y-69677104D01*
X47966666Y-69677104D02*
X47919047Y-69819961D01*
X47919047Y-69819961D02*
X47823809Y-69915200D01*
X47823809Y-69915200D02*
X47680952Y-69962819D01*
X47680952Y-69962819D02*
X47585714Y-69962819D01*
X48347619Y-68962819D02*
X48966666Y-68962819D01*
X48966666Y-68962819D02*
X48633333Y-69343771D01*
X48633333Y-69343771D02*
X48776190Y-69343771D01*
X48776190Y-69343771D02*
X48871428Y-69391390D01*
X48871428Y-69391390D02*
X48919047Y-69439009D01*
X48919047Y-69439009D02*
X48966666Y-69534247D01*
X48966666Y-69534247D02*
X48966666Y-69772342D01*
X48966666Y-69772342D02*
X48919047Y-69867580D01*
X48919047Y-69867580D02*
X48871428Y-69915200D01*
X48871428Y-69915200D02*
X48776190Y-69962819D01*
X48776190Y-69962819D02*
X48490476Y-69962819D01*
X48490476Y-69962819D02*
X48395238Y-69915200D01*
X48395238Y-69915200D02*
X48347619Y-69867580D01*
X47093333Y-62430819D02*
X47093333Y-61430819D01*
X47093333Y-61430819D02*
X47474285Y-61430819D01*
X47474285Y-61430819D02*
X47569523Y-61478438D01*
X47569523Y-61478438D02*
X47617142Y-61526057D01*
X47617142Y-61526057D02*
X47664761Y-61621295D01*
X47664761Y-61621295D02*
X47664761Y-61764152D01*
X47664761Y-61764152D02*
X47617142Y-61859390D01*
X47617142Y-61859390D02*
X47569523Y-61907009D01*
X47569523Y-61907009D02*
X47474285Y-61954628D01*
X47474285Y-61954628D02*
X47093333Y-61954628D01*
X48283809Y-61430819D02*
X48474285Y-61430819D01*
X48474285Y-61430819D02*
X48569523Y-61478438D01*
X48569523Y-61478438D02*
X48664761Y-61573676D01*
X48664761Y-61573676D02*
X48712380Y-61764152D01*
X48712380Y-61764152D02*
X48712380Y-62097485D01*
X48712380Y-62097485D02*
X48664761Y-62287961D01*
X48664761Y-62287961D02*
X48569523Y-62383200D01*
X48569523Y-62383200D02*
X48474285Y-62430819D01*
X48474285Y-62430819D02*
X48283809Y-62430819D01*
X48283809Y-62430819D02*
X48188571Y-62383200D01*
X48188571Y-62383200D02*
X48093333Y-62287961D01*
X48093333Y-62287961D02*
X48045714Y-62097485D01*
X48045714Y-62097485D02*
X48045714Y-61764152D01*
X48045714Y-61764152D02*
X48093333Y-61573676D01*
X48093333Y-61573676D02*
X48188571Y-61478438D01*
X48188571Y-61478438D02*
X48283809Y-61430819D01*
X48998095Y-61430819D02*
X49569523Y-61430819D01*
X49283809Y-62430819D02*
X49283809Y-61430819D01*
X80494856Y-61827580D02*
X80447237Y-61875200D01*
X80447237Y-61875200D02*
X80304380Y-61922819D01*
X80304380Y-61922819D02*
X80209142Y-61922819D01*
X80209142Y-61922819D02*
X80066285Y-61875200D01*
X80066285Y-61875200D02*
X79971047Y-61779961D01*
X79971047Y-61779961D02*
X79923428Y-61684723D01*
X79923428Y-61684723D02*
X79875809Y-61494247D01*
X79875809Y-61494247D02*
X79875809Y-61351390D01*
X79875809Y-61351390D02*
X79923428Y-61160914D01*
X79923428Y-61160914D02*
X79971047Y-61065676D01*
X79971047Y-61065676D02*
X80066285Y-60970438D01*
X80066285Y-60970438D02*
X80209142Y-60922819D01*
X80209142Y-60922819D02*
X80304380Y-60922819D01*
X80304380Y-60922819D02*
X80447237Y-60970438D01*
X80447237Y-60970438D02*
X80494856Y-61018057D01*
X81399618Y-61922819D02*
X80923428Y-61922819D01*
X80923428Y-61922819D02*
X80923428Y-60922819D01*
X81732952Y-61399009D02*
X82066285Y-61399009D01*
X82209142Y-61922819D02*
X81732952Y-61922819D01*
X81732952Y-61922819D02*
X81732952Y-60922819D01*
X81732952Y-60922819D02*
X82209142Y-60922819D01*
X82590095Y-61637104D02*
X83066285Y-61637104D01*
X82494857Y-61922819D02*
X82828190Y-60922819D01*
X82828190Y-60922819D02*
X83161523Y-61922819D01*
X84066285Y-61922819D02*
X83732952Y-61446628D01*
X83494857Y-61922819D02*
X83494857Y-60922819D01*
X83494857Y-60922819D02*
X83875809Y-60922819D01*
X83875809Y-60922819D02*
X83971047Y-60970438D01*
X83971047Y-60970438D02*
X84018666Y-61018057D01*
X84018666Y-61018057D02*
X84066285Y-61113295D01*
X84066285Y-61113295D02*
X84066285Y-61256152D01*
X84066285Y-61256152D02*
X84018666Y-61351390D01*
X84018666Y-61351390D02*
X83971047Y-61399009D01*
X83971047Y-61399009D02*
X83875809Y-61446628D01*
X83875809Y-61446628D02*
X83494857Y-61446628D01*
X84256762Y-62018057D02*
X85018666Y-62018057D01*
X85256762Y-61399009D02*
X85590095Y-61399009D01*
X85732952Y-61922819D02*
X85256762Y-61922819D01*
X85256762Y-61922819D02*
X85256762Y-60922819D01*
X85256762Y-60922819D02*
X85732952Y-60922819D01*
X86161524Y-61399009D02*
X86494857Y-61399009D01*
X86637714Y-61922819D02*
X86161524Y-61922819D01*
X86161524Y-61922819D02*
X86161524Y-60922819D01*
X86161524Y-60922819D02*
X86637714Y-60922819D01*
X87066286Y-61922819D02*
X87066286Y-60922819D01*
X87066286Y-60922819D02*
X87447238Y-60922819D01*
X87447238Y-60922819D02*
X87542476Y-60970438D01*
X87542476Y-60970438D02*
X87590095Y-61018057D01*
X87590095Y-61018057D02*
X87637714Y-61113295D01*
X87637714Y-61113295D02*
X87637714Y-61256152D01*
X87637714Y-61256152D02*
X87590095Y-61351390D01*
X87590095Y-61351390D02*
X87542476Y-61399009D01*
X87542476Y-61399009D02*
X87447238Y-61446628D01*
X87447238Y-61446628D02*
X87066286Y-61446628D01*
X88637714Y-61922819D02*
X88304381Y-61446628D01*
X88066286Y-61922819D02*
X88066286Y-60922819D01*
X88066286Y-60922819D02*
X88447238Y-60922819D01*
X88447238Y-60922819D02*
X88542476Y-60970438D01*
X88542476Y-60970438D02*
X88590095Y-61018057D01*
X88590095Y-61018057D02*
X88637714Y-61113295D01*
X88637714Y-61113295D02*
X88637714Y-61256152D01*
X88637714Y-61256152D02*
X88590095Y-61351390D01*
X88590095Y-61351390D02*
X88542476Y-61399009D01*
X88542476Y-61399009D02*
X88447238Y-61446628D01*
X88447238Y-61446628D02*
X88066286Y-61446628D01*
X89256762Y-60922819D02*
X89447238Y-60922819D01*
X89447238Y-60922819D02*
X89542476Y-60970438D01*
X89542476Y-60970438D02*
X89637714Y-61065676D01*
X89637714Y-61065676D02*
X89685333Y-61256152D01*
X89685333Y-61256152D02*
X89685333Y-61589485D01*
X89685333Y-61589485D02*
X89637714Y-61779961D01*
X89637714Y-61779961D02*
X89542476Y-61875200D01*
X89542476Y-61875200D02*
X89447238Y-61922819D01*
X89447238Y-61922819D02*
X89256762Y-61922819D01*
X89256762Y-61922819D02*
X89161524Y-61875200D01*
X89161524Y-61875200D02*
X89066286Y-61779961D01*
X89066286Y-61779961D02*
X89018667Y-61589485D01*
X89018667Y-61589485D02*
X89018667Y-61256152D01*
X89018667Y-61256152D02*
X89066286Y-61065676D01*
X89066286Y-61065676D02*
X89161524Y-60970438D01*
X89161524Y-60970438D02*
X89256762Y-60922819D01*
X90113905Y-61922819D02*
X90113905Y-60922819D01*
X90113905Y-60922819D02*
X90447238Y-61637104D01*
X90447238Y-61637104D02*
X90780571Y-60922819D01*
X90780571Y-60922819D02*
X90780571Y-61922819D01*
X84518667Y-66955200D02*
X84661524Y-67002819D01*
X84661524Y-67002819D02*
X84899619Y-67002819D01*
X84899619Y-67002819D02*
X84994857Y-66955200D01*
X84994857Y-66955200D02*
X85042476Y-66907580D01*
X85042476Y-66907580D02*
X85090095Y-66812342D01*
X85090095Y-66812342D02*
X85090095Y-66717104D01*
X85090095Y-66717104D02*
X85042476Y-66621866D01*
X85042476Y-66621866D02*
X84994857Y-66574247D01*
X84994857Y-66574247D02*
X84899619Y-66526628D01*
X84899619Y-66526628D02*
X84709143Y-66479009D01*
X84709143Y-66479009D02*
X84613905Y-66431390D01*
X84613905Y-66431390D02*
X84566286Y-66383771D01*
X84566286Y-66383771D02*
X84518667Y-66288533D01*
X84518667Y-66288533D02*
X84518667Y-66193295D01*
X84518667Y-66193295D02*
X84566286Y-66098057D01*
X84566286Y-66098057D02*
X84613905Y-66050438D01*
X84613905Y-66050438D02*
X84709143Y-66002819D01*
X84709143Y-66002819D02*
X84947238Y-66002819D01*
X84947238Y-66002819D02*
X85090095Y-66050438D01*
X85423429Y-66002819D02*
X85661524Y-67002819D01*
X85661524Y-67002819D02*
X85852000Y-66288533D01*
X85852000Y-66288533D02*
X86042476Y-67002819D01*
X86042476Y-67002819D02*
X86280572Y-66002819D01*
X87185333Y-67002819D02*
X86613905Y-67002819D01*
X86899619Y-67002819D02*
X86899619Y-66002819D01*
X86899619Y-66002819D02*
X86804381Y-66145676D01*
X86804381Y-66145676D02*
X86709143Y-66240914D01*
X86709143Y-66240914D02*
X86613905Y-66288533D01*
X82666666Y-43470819D02*
X82666666Y-44185104D01*
X82666666Y-44185104D02*
X82619047Y-44327961D01*
X82619047Y-44327961D02*
X82523809Y-44423200D01*
X82523809Y-44423200D02*
X82380952Y-44470819D01*
X82380952Y-44470819D02*
X82285714Y-44470819D01*
X83095238Y-43566057D02*
X83142857Y-43518438D01*
X83142857Y-43518438D02*
X83238095Y-43470819D01*
X83238095Y-43470819D02*
X83476190Y-43470819D01*
X83476190Y-43470819D02*
X83571428Y-43518438D01*
X83571428Y-43518438D02*
X83619047Y-43566057D01*
X83619047Y-43566057D02*
X83666666Y-43661295D01*
X83666666Y-43661295D02*
X83666666Y-43756533D01*
X83666666Y-43756533D02*
X83619047Y-43899390D01*
X83619047Y-43899390D02*
X83047619Y-44470819D01*
X83047619Y-44470819D02*
X83666666Y-44470819D01*
X91910819Y-49474285D02*
X91910819Y-49950475D01*
X91910819Y-49950475D02*
X92387009Y-49998094D01*
X92387009Y-49998094D02*
X92339390Y-49950475D01*
X92339390Y-49950475D02*
X92291771Y-49855237D01*
X92291771Y-49855237D02*
X92291771Y-49617142D01*
X92291771Y-49617142D02*
X92339390Y-49521904D01*
X92339390Y-49521904D02*
X92387009Y-49474285D01*
X92387009Y-49474285D02*
X92482247Y-49426666D01*
X92482247Y-49426666D02*
X92720342Y-49426666D01*
X92720342Y-49426666D02*
X92815580Y-49474285D01*
X92815580Y-49474285D02*
X92863200Y-49521904D01*
X92863200Y-49521904D02*
X92910819Y-49617142D01*
X92910819Y-49617142D02*
X92910819Y-49855237D01*
X92910819Y-49855237D02*
X92863200Y-49950475D01*
X92863200Y-49950475D02*
X92815580Y-49998094D01*
X92910819Y-48474285D02*
X92910819Y-49045713D01*
X92910819Y-48759999D02*
X91910819Y-48759999D01*
X91910819Y-48759999D02*
X92053676Y-48855237D01*
X92053676Y-48855237D02*
X92148914Y-48950475D01*
X92148914Y-48950475D02*
X92196533Y-49045713D01*
X92006057Y-48093332D02*
X91958438Y-48045713D01*
X91958438Y-48045713D02*
X91910819Y-47950475D01*
X91910819Y-47950475D02*
X91910819Y-47712380D01*
X91910819Y-47712380D02*
X91958438Y-47617142D01*
X91958438Y-47617142D02*
X92006057Y-47569523D01*
X92006057Y-47569523D02*
X92101295Y-47521904D01*
X92101295Y-47521904D02*
X92196533Y-47521904D01*
X92196533Y-47521904D02*
X92339390Y-47569523D01*
X92339390Y-47569523D02*
X92910819Y-48140951D01*
X92910819Y-48140951D02*
X92910819Y-47521904D01*
X92815580Y-46521904D02*
X92863200Y-46569523D01*
X92863200Y-46569523D02*
X92910819Y-46712380D01*
X92910819Y-46712380D02*
X92910819Y-46807618D01*
X92910819Y-46807618D02*
X92863200Y-46950475D01*
X92863200Y-46950475D02*
X92767961Y-47045713D01*
X92767961Y-47045713D02*
X92672723Y-47093332D01*
X92672723Y-47093332D02*
X92482247Y-47140951D01*
X92482247Y-47140951D02*
X92339390Y-47140951D01*
X92339390Y-47140951D02*
X92148914Y-47093332D01*
X92148914Y-47093332D02*
X92053676Y-47045713D01*
X92053676Y-47045713D02*
X91958438Y-46950475D01*
X91958438Y-46950475D02*
X91910819Y-46807618D01*
X91910819Y-46807618D02*
X91910819Y-46712380D01*
X91910819Y-46712380D02*
X91958438Y-46569523D01*
X91958438Y-46569523D02*
X92006057Y-46521904D01*
X34826905Y-62326819D02*
X34826905Y-61326819D01*
X34826905Y-61326819D02*
X35065000Y-61326819D01*
X35065000Y-61326819D02*
X35207857Y-61374438D01*
X35207857Y-61374438D02*
X35303095Y-61469676D01*
X35303095Y-61469676D02*
X35350714Y-61564914D01*
X35350714Y-61564914D02*
X35398333Y-61755390D01*
X35398333Y-61755390D02*
X35398333Y-61898247D01*
X35398333Y-61898247D02*
X35350714Y-62088723D01*
X35350714Y-62088723D02*
X35303095Y-62183961D01*
X35303095Y-62183961D02*
X35207857Y-62279200D01*
X35207857Y-62279200D02*
X35065000Y-62326819D01*
X35065000Y-62326819D02*
X34826905Y-62326819D01*
X36350714Y-62326819D02*
X35779286Y-62326819D01*
X36065000Y-62326819D02*
X36065000Y-61326819D01*
X36065000Y-61326819D02*
X35969762Y-61469676D01*
X35969762Y-61469676D02*
X35874524Y-61564914D01*
X35874524Y-61564914D02*
X35779286Y-61612533D01*
X28884762Y-61938819D02*
X28884762Y-62748342D01*
X28884762Y-62748342D02*
X28932381Y-62843580D01*
X28932381Y-62843580D02*
X28980000Y-62891200D01*
X28980000Y-62891200D02*
X29075238Y-62938819D01*
X29075238Y-62938819D02*
X29265714Y-62938819D01*
X29265714Y-62938819D02*
X29360952Y-62891200D01*
X29360952Y-62891200D02*
X29408571Y-62843580D01*
X29408571Y-62843580D02*
X29456190Y-62748342D01*
X29456190Y-62748342D02*
X29456190Y-61938819D01*
X29884762Y-62653104D02*
X30360952Y-62653104D01*
X29789524Y-62938819D02*
X30122857Y-61938819D01*
X30122857Y-61938819D02*
X30456190Y-62938819D01*
X31360952Y-62938819D02*
X31027619Y-62462628D01*
X30789524Y-62938819D02*
X30789524Y-61938819D01*
X30789524Y-61938819D02*
X31170476Y-61938819D01*
X31170476Y-61938819D02*
X31265714Y-61986438D01*
X31265714Y-61986438D02*
X31313333Y-62034057D01*
X31313333Y-62034057D02*
X31360952Y-62129295D01*
X31360952Y-62129295D02*
X31360952Y-62272152D01*
X31360952Y-62272152D02*
X31313333Y-62367390D01*
X31313333Y-62367390D02*
X31265714Y-62415009D01*
X31265714Y-62415009D02*
X31170476Y-62462628D01*
X31170476Y-62462628D02*
X30789524Y-62462628D01*
X31646667Y-61938819D02*
X32218095Y-61938819D01*
X31932381Y-62938819D02*
X31932381Y-61938819D01*
X33087333Y-47135580D02*
X33039714Y-47183200D01*
X33039714Y-47183200D02*
X32896857Y-47230819D01*
X32896857Y-47230819D02*
X32801619Y-47230819D01*
X32801619Y-47230819D02*
X32658762Y-47183200D01*
X32658762Y-47183200D02*
X32563524Y-47087961D01*
X32563524Y-47087961D02*
X32515905Y-46992723D01*
X32515905Y-46992723D02*
X32468286Y-46802247D01*
X32468286Y-46802247D02*
X32468286Y-46659390D01*
X32468286Y-46659390D02*
X32515905Y-46468914D01*
X32515905Y-46468914D02*
X32563524Y-46373676D01*
X32563524Y-46373676D02*
X32658762Y-46278438D01*
X32658762Y-46278438D02*
X32801619Y-46230819D01*
X32801619Y-46230819D02*
X32896857Y-46230819D01*
X32896857Y-46230819D02*
X33039714Y-46278438D01*
X33039714Y-46278438D02*
X33087333Y-46326057D01*
X33420667Y-46230819D02*
X34039714Y-46230819D01*
X34039714Y-46230819D02*
X33706381Y-46611771D01*
X33706381Y-46611771D02*
X33849238Y-46611771D01*
X33849238Y-46611771D02*
X33944476Y-46659390D01*
X33944476Y-46659390D02*
X33992095Y-46707009D01*
X33992095Y-46707009D02*
X34039714Y-46802247D01*
X34039714Y-46802247D02*
X34039714Y-47040342D01*
X34039714Y-47040342D02*
X33992095Y-47135580D01*
X33992095Y-47135580D02*
X33944476Y-47183200D01*
X33944476Y-47183200D02*
X33849238Y-47230819D01*
X33849238Y-47230819D02*
X33563524Y-47230819D01*
X33563524Y-47230819D02*
X33468286Y-47183200D01*
X33468286Y-47183200D02*
X33420667Y-47135580D01*
X57441180Y-52070095D02*
X56631657Y-52070095D01*
X56631657Y-52070095D02*
X56536419Y-52117714D01*
X56536419Y-52117714D02*
X56488800Y-52165333D01*
X56488800Y-52165333D02*
X56441180Y-52260571D01*
X56441180Y-52260571D02*
X56441180Y-52451047D01*
X56441180Y-52451047D02*
X56488800Y-52546285D01*
X56488800Y-52546285D02*
X56536419Y-52593904D01*
X56536419Y-52593904D02*
X56631657Y-52641523D01*
X56631657Y-52641523D02*
X57441180Y-52641523D01*
X56441180Y-53641523D02*
X56441180Y-53070095D01*
X56441180Y-53355809D02*
X57441180Y-53355809D01*
X57441180Y-53355809D02*
X57298323Y-53260571D01*
X57298323Y-53260571D02*
X57203085Y-53165333D01*
X57203085Y-53165333D02*
X57155466Y-53070095D01*
D12*
%TO.C,PRO_MINI1*%
X40810000Y-42696000D02*
X40810000Y-48776000D01*
X40810000Y-48776000D02*
X41170000Y-48776000D01*
X40810000Y-54855999D02*
X40810000Y-60936000D01*
X40810000Y-60936000D02*
X70950000Y-60936000D01*
X41170000Y-48776000D02*
X41170000Y-54855999D01*
X41170000Y-54855999D02*
X40810000Y-54855999D01*
X70950000Y-42696000D02*
X40810000Y-42696000D01*
X70950000Y-60936000D02*
X70950000Y-42696000D01*
%TO.C,C1*%
X79281000Y-53986000D02*
X79281000Y-54726000D01*
X79241000Y-53819000D02*
X79241000Y-54893000D01*
X79201000Y-53692000D02*
X79201000Y-55020000D01*
X79161000Y-53588000D02*
X79161000Y-55124000D01*
X79121000Y-53497000D02*
X79121000Y-55215000D01*
X79081000Y-53416000D02*
X79081000Y-55296000D01*
X79041000Y-53343000D02*
X79041000Y-55369000D01*
X79001000Y-55196000D02*
X79001000Y-55436000D01*
X79001000Y-53276000D02*
X79001000Y-53516000D01*
X78961000Y-55196000D02*
X78961000Y-55498000D01*
X78961000Y-53214000D02*
X78961000Y-53516000D01*
X78921000Y-55196000D02*
X78921000Y-55556000D01*
X78921000Y-53156000D02*
X78921000Y-53516000D01*
X78881000Y-55196000D02*
X78881000Y-55610000D01*
X78881000Y-53102000D02*
X78881000Y-53516000D01*
X78841000Y-55196000D02*
X78841000Y-55660000D01*
X78841000Y-53052000D02*
X78841000Y-53516000D01*
X78801000Y-55196000D02*
X78801000Y-55707000D01*
X78801000Y-53005000D02*
X78801000Y-53516000D01*
X78761000Y-55196000D02*
X78761000Y-55752000D01*
X78761000Y-52960000D02*
X78761000Y-53516000D01*
X78721000Y-55196000D02*
X78721000Y-55794000D01*
X78721000Y-52918000D02*
X78721000Y-53516000D01*
X78681000Y-55196000D02*
X78681000Y-55834000D01*
X78681000Y-52878000D02*
X78681000Y-53516000D01*
X78641000Y-55196000D02*
X78641000Y-55872000D01*
X78641000Y-52840000D02*
X78641000Y-53516000D01*
X78601000Y-55196000D02*
X78601000Y-55908000D01*
X78601000Y-52804000D02*
X78601000Y-53516000D01*
X78561000Y-55196000D02*
X78561000Y-55943000D01*
X78561000Y-52769000D02*
X78561000Y-53516000D01*
X78521000Y-55196000D02*
X78521000Y-55975000D01*
X78521000Y-52737000D02*
X78521000Y-53516000D01*
X78481000Y-55196000D02*
X78481000Y-56006000D01*
X78481000Y-52706000D02*
X78481000Y-53516000D01*
X78441000Y-55196000D02*
X78441000Y-56036000D01*
X78441000Y-52676000D02*
X78441000Y-53516000D01*
X78401000Y-55196000D02*
X78401000Y-56064000D01*
X78401000Y-52648000D02*
X78401000Y-53516000D01*
X78361000Y-55196000D02*
X78361000Y-56091000D01*
X78361000Y-52621000D02*
X78361000Y-53516000D01*
X78321000Y-55196000D02*
X78321000Y-56116000D01*
X78321000Y-52596000D02*
X78321000Y-53516000D01*
X78281000Y-55196000D02*
X78281000Y-56141000D01*
X78281000Y-52571000D02*
X78281000Y-53516000D01*
X78241000Y-55196000D02*
X78241000Y-56164000D01*
X78241000Y-52548000D02*
X78241000Y-53516000D01*
X78201000Y-55196000D02*
X78201000Y-56186000D01*
X78201000Y-52526000D02*
X78201000Y-53516000D01*
X78161000Y-55196000D02*
X78161000Y-56207000D01*
X78161000Y-52505000D02*
X78161000Y-53516000D01*
X78121000Y-55196000D02*
X78121000Y-56226000D01*
X78121000Y-52486000D02*
X78121000Y-53516000D01*
X78081000Y-55196000D02*
X78081000Y-56245000D01*
X78081000Y-52467000D02*
X78081000Y-53516000D01*
X78041000Y-55196000D02*
X78041000Y-56263000D01*
X78041000Y-52449000D02*
X78041000Y-53516000D01*
X78001000Y-55196000D02*
X78001000Y-56280000D01*
X78001000Y-52432000D02*
X78001000Y-53516000D01*
X77961000Y-55196000D02*
X77961000Y-56296000D01*
X77961000Y-52416000D02*
X77961000Y-53516000D01*
X77921000Y-55196000D02*
X77921000Y-56310000D01*
X77921000Y-52402000D02*
X77921000Y-53516000D01*
X77880000Y-55196000D02*
X77880000Y-56324000D01*
X77880000Y-52388000D02*
X77880000Y-53516000D01*
X77840000Y-55196000D02*
X77840000Y-56338000D01*
X77840000Y-52374000D02*
X77840000Y-53516000D01*
X77800000Y-55196000D02*
X77800000Y-56350000D01*
X77800000Y-52362000D02*
X77800000Y-53516000D01*
X77760000Y-55196000D02*
X77760000Y-56361000D01*
X77760000Y-52351000D02*
X77760000Y-53516000D01*
X77720000Y-55196000D02*
X77720000Y-56372000D01*
X77720000Y-52340000D02*
X77720000Y-53516000D01*
X77680000Y-55196000D02*
X77680000Y-56381000D01*
X77680000Y-52331000D02*
X77680000Y-53516000D01*
X77640000Y-55196000D02*
X77640000Y-56390000D01*
X77640000Y-52322000D02*
X77640000Y-53516000D01*
X77600000Y-55196000D02*
X77600000Y-56398000D01*
X77600000Y-52314000D02*
X77600000Y-53516000D01*
X77560000Y-55196000D02*
X77560000Y-56406000D01*
X77560000Y-52306000D02*
X77560000Y-53516000D01*
X77520000Y-55196000D02*
X77520000Y-56412000D01*
X77520000Y-52300000D02*
X77520000Y-53516000D01*
X77480000Y-55196000D02*
X77480000Y-56418000D01*
X77480000Y-52294000D02*
X77480000Y-53516000D01*
X77440000Y-55196000D02*
X77440000Y-56423000D01*
X77440000Y-52289000D02*
X77440000Y-53516000D01*
X77400000Y-55196000D02*
X77400000Y-56427000D01*
X77400000Y-52285000D02*
X77400000Y-53516000D01*
X77360000Y-52282000D02*
X77360000Y-56430000D01*
X77320000Y-52279000D02*
X77320000Y-56433000D01*
X77280000Y-52277000D02*
X77280000Y-56435000D01*
X77240000Y-52276000D02*
X77240000Y-56436000D01*
X77200000Y-52276000D02*
X77200000Y-56436000D01*
X75130199Y-52961000D02*
X75130199Y-53361000D01*
X74930199Y-53161000D02*
X75330199Y-53161000D01*
X79320000Y-54356000D02*
G75*
G02*
X75080000Y-54356000I-2120000J0D01*
G01*
X75080000Y-54356000D02*
G75*
G02*
X79320000Y-54356000I2120000J0D01*
G01*
%TO.C,R1*%
X32290000Y-43044000D02*
X32290000Y-43374000D01*
X32290000Y-45784000D02*
X32290000Y-45454000D01*
X38830000Y-43044000D02*
X32290000Y-43044000D01*
X38830000Y-43374000D02*
X38830000Y-43044000D01*
X38830000Y-45454000D02*
X38830000Y-45784000D01*
X38830000Y-45784000D02*
X32290000Y-45784000D01*
%TO.C,J1*%
X56896000Y-62738000D02*
X56896000Y-70358000D01*
X56896000Y-64008000D02*
X77216000Y-64008000D01*
X77216000Y-62738000D02*
X56896000Y-62738000D01*
X77216000Y-70358000D02*
X56896000Y-70358000D01*
X77216000Y-70358000D02*
X77216000Y-62738000D01*
%TO.C,J3*%
X40640000Y-62738000D02*
X40640000Y-70358000D01*
X55880000Y-62738000D02*
X40640000Y-62738000D01*
X55880000Y-62738000D02*
X55880000Y-70358000D01*
X55880000Y-64008000D02*
X40640000Y-64008000D01*
X55880000Y-70358000D02*
X40640000Y-70358000D01*
%TO.C,SW1*%
X82352000Y-65798000D02*
X82352000Y-67298000D01*
X83602000Y-69798000D02*
X88102000Y-69798000D01*
X88102000Y-63298000D02*
X83602000Y-63298000D01*
X89352000Y-67298000D02*
X89352000Y-65798000D01*
%TO.C,J2*%
X75380000Y-42926000D02*
X90620000Y-42926000D01*
X75380000Y-49276000D02*
X90620000Y-49276000D01*
X75380000Y-50546000D02*
X75380000Y-42926000D01*
X75380000Y-50546000D02*
X90620000Y-50546000D01*
X90620000Y-50546000D02*
X90620000Y-42926000D01*
%TO.C,D1*%
X38125000Y-59457000D02*
X38125000Y-56367000D01*
X38125000Y-59456830D02*
G75*
G02*
X32575000Y-57911538I-2560000J1544830D01*
G01*
X32575000Y-57912462D02*
G75*
G02*
X38125000Y-56367170I2990000J462D01*
G01*
X38065000Y-57912000D02*
G75*
G02*
X33065000Y-57912000I-2500000J0D01*
G01*
X33065000Y-57912000D02*
G75*
G02*
X38065000Y-57912000I2500000J0D01*
G01*
%TO.C,J4*%
X29194000Y-63781000D02*
X29194000Y-65031000D01*
X29484000Y-64071000D02*
X29484000Y-70041000D01*
X29484000Y-70041000D02*
X39604000Y-70041000D01*
X29494000Y-64081000D02*
X29494000Y-64831000D01*
X29494000Y-64831000D02*
X31294000Y-64831000D01*
X29494000Y-66331000D02*
X30244000Y-66331000D01*
X30244000Y-66331000D02*
X30244000Y-69281000D01*
X30244000Y-69281000D02*
X34544000Y-69281000D01*
X30444000Y-63781000D02*
X29194000Y-63781000D01*
X31294000Y-64081000D02*
X29494000Y-64081000D01*
X31294000Y-64831000D02*
X31294000Y-64081000D01*
X32794000Y-64081000D02*
X32794000Y-64831000D01*
X32794000Y-64831000D02*
X36294000Y-64831000D01*
X36294000Y-64081000D02*
X32794000Y-64081000D01*
X36294000Y-64831000D02*
X36294000Y-64081000D01*
X37794000Y-64081000D02*
X37794000Y-64831000D01*
X37794000Y-64831000D02*
X39594000Y-64831000D01*
X38844000Y-66331000D02*
X38844000Y-69281000D01*
X38844000Y-69281000D02*
X34544000Y-69281000D01*
X39594000Y-64081000D02*
X37794000Y-64081000D01*
X39594000Y-64831000D02*
X39594000Y-64081000D01*
X39594000Y-66331000D02*
X38844000Y-66331000D01*
X39604000Y-64071000D02*
X29484000Y-64071000D01*
X39604000Y-70041000D02*
X39604000Y-64071000D01*
%TO.C,C3*%
X30634000Y-47906000D02*
X30634000Y-50646000D01*
X30634000Y-47906000D02*
X35874000Y-47906000D01*
X30634000Y-50646000D02*
X35874000Y-50646000D01*
X35874000Y-47906000D02*
X35874000Y-50646000D01*
D13*
%TO.C,U1*%
G36*
X56436501Y-56896000D02*
G01*
X56055501Y-56896000D01*
X56055501Y-56642000D01*
X56436501Y-56642000D01*
X56436501Y-56896000D01*
G37*
D14*
X54216300Y-50457100D02*
X54216300Y-55206900D01*
X59575700Y-55206900D02*
X59575700Y-50457100D01*
%TD*%
M02*
