M48
; DRILL file {KiCad 8.0.4} date 2024-08-22T00:59:57+0200
; FORMAT={-:-/ absolute / metric / decimal}
; #@! TF.CreationDate,2024-08-22T00:59:57+02:00
; #@! TF.GenerationSoftware,Kicad,Pcbnew,8.0.4
; #@! TF.FileFunction,Plated,1,2,PTH
FMAT,2
METRIC
; #@! TA.AperFunction,Plated,PTH,ViaDrill
T1C0.300
; #@! TA.AperFunction,Plated,PTH,ComponentDrill
T2C0.600
; #@! TA.AperFunction,Plated,PTH,ViaDrill
T3C0.800
; #@! TA.AperFunction,Plated,PTH,ComponentDrill
T4C0.800
; #@! TA.AperFunction,Plated,PTH,ComponentDrill
T5C0.900
; #@! TA.AperFunction,Plated,PTH,ComponentDrill
T6C0.950
; #@! TA.AperFunction,Plated,PTH,ComponentDrill
T7C1.100
; #@! TA.AperFunction,Plated,PTH,ComponentDrill
T8C1.520
; #@! TA.AperFunction,Plated,PTH,ViaDrill
T9C3.000
%
G90
G05
T1
X55.88Y-57.912
X56.261Y-48.768
X57.15Y-48.768
X58.166Y-48.768
X58.42Y-51.181
X60.706Y-50.038
X61.976Y-52.832
X61.976Y-54.356
X61.976Y-55.88
T2
X76.2Y-54.356
X78.2Y-54.356
T3
X42.164Y-56.896
X42.672Y-47.244
X51.816Y-56.896
X72.136Y-47.244
T4
X31.75Y-44.414
X32.004Y-49.276
X34.504Y-49.276
X39.37Y-44.414
X41.91Y-44.196
X41.91Y-59.436
X44.45Y-44.196
X44.45Y-59.436
X46.99Y-44.196
X46.99Y-59.436
X49.53Y-44.196
X49.53Y-59.436
X52.07Y-44.196
X52.07Y-59.436
X54.61Y-44.196
X54.61Y-59.436
X57.15Y-44.196
X57.15Y-59.436
X59.69Y-44.196
X59.69Y-59.436
X62.23Y-44.196
X62.23Y-59.436
X64.77Y-44.196
X64.77Y-59.436
X67.31Y-44.196
X67.31Y-59.436
X69.85Y-44.196
X69.85Y-59.436
T5
X34.295Y-57.912
X36.835Y-57.912
T6
X32.044Y-66.531
X34.544Y-66.531
X37.044Y-66.531
T7
X82.602Y-64.298
X82.602Y-68.798
X89.102Y-64.298
X89.102Y-68.798
T8
X43.18Y-66.548
X48.26Y-66.548
X53.34Y-66.548
X59.436Y-66.548
X64.516Y-66.548
X69.596Y-66.548
X74.676Y-66.548
X77.92Y-46.736
X83.0Y-46.736
X88.08Y-46.736
T9
X27.94Y-43.18
X27.94Y-68.072
X92.964Y-43.18
X92.964Y-68.072
M30
