%TF.GenerationSoftware,KiCad,Pcbnew,8.0.4*%
%TF.CreationDate,2024-08-22T00:59:55+02:00*%
%TF.ProjectId,feed-selector-v2,66656564-2d73-4656-9c65-63746f722d76,rev?*%
%TF.SameCoordinates,Original*%
%TF.FileFunction,Soldermask,Top*%
%TF.FilePolarity,Negative*%
%FSLAX46Y46*%
G04 Gerber Fmt 4.6, Leading zero omitted, Abs format (unit mm)*
G04 Created by KiCad (PCBNEW 8.0.4) date 2024-08-22 00:59:55*
%MOMM*%
%LPD*%
G01*
G04 APERTURE LIST*
G04 Aperture macros list*
%AMRoundRect*
0 Rectangle with rounded corners*
0 $1 Rounding radius*
0 $2 $3 $4 $5 $6 $7 $8 $9 X,Y pos of 4 corners*
0 Add a 4 corners polygon primitive as box body*
4,1,4,$2,$3,$4,$5,$6,$7,$8,$9,$2,$3,0*
0 Add four circle primitives for the rounded corners*
1,1,$1+$1,$2,$3*
1,1,$1+$1,$4,$5*
1,1,$1+$1,$6,$7*
1,1,$1+$1,$8,$9*
0 Add four rect primitives between the rounded corners*
20,1,$1+$1,$2,$3,$4,$5,0*
20,1,$1+$1,$4,$5,$6,$7,0*
20,1,$1+$1,$6,$7,$8,$9,0*
20,1,$1+$1,$8,$9,$2,$3,0*%
G04 Aperture macros list end*
%ADD10O,1.200000X2.000000*%
%ADD11R,1.200000X1.200000*%
%ADD12C,1.200000*%
%ADD13C,1.600000*%
%ADD14O,1.600000X1.600000*%
%ADD15R,3.000000X3.000000*%
%ADD16C,3.000000*%
%ADD17C,2.000000*%
%ADD18R,1.800000X1.800000*%
%ADD19C,1.800000*%
%ADD20RoundRect,0.250000X-0.600000X-0.725000X0.600000X-0.725000X0.600000X0.725000X-0.600000X0.725000X0*%
%ADD21O,1.700000X1.950000*%
%ADD22R,0.355600X1.473200*%
G04 APERTURE END LIST*
D10*
%TO.C,PRO_MINI1*%
X41910000Y-59436000D03*
X44450000Y-59436000D03*
X46990000Y-59436000D03*
X49530000Y-59436000D03*
X52070000Y-59436000D03*
X54610000Y-59436000D03*
X57150000Y-59436000D03*
X59690000Y-59436000D03*
X62230000Y-59436000D03*
X64770000Y-59436000D03*
X67310000Y-59436000D03*
X69850000Y-59436000D03*
X69850000Y-44196000D03*
X67310000Y-44196000D03*
X64770000Y-44196000D03*
X62230000Y-44196000D03*
X59690000Y-44196000D03*
X57150000Y-44196000D03*
X54610000Y-44196000D03*
X52070000Y-44196000D03*
X49530000Y-44196000D03*
X46990000Y-44196000D03*
X44450000Y-44196000D03*
X41910000Y-44196000D03*
%TD*%
D11*
%TO.C,C1*%
X76200000Y-54356000D03*
D12*
X78200000Y-54356000D03*
%TD*%
D13*
%TO.C,R1*%
X39370000Y-44414000D03*
D14*
X31750000Y-44414000D03*
%TD*%
D15*
%TO.C,J1*%
X74676000Y-66548000D03*
D16*
X69596000Y-66548000D03*
X64516000Y-66548000D03*
X59436000Y-66548000D03*
%TD*%
D15*
%TO.C,J3*%
X53340000Y-66548000D03*
D16*
X48260000Y-66548000D03*
X43180000Y-66548000D03*
%TD*%
D17*
%TO.C,SW1*%
X89102000Y-68798000D03*
X82602000Y-68798000D03*
X89102000Y-64298000D03*
X82602000Y-64298000D03*
%TD*%
D15*
%TO.C,J2*%
X77920000Y-46736000D03*
D16*
X83000000Y-46736000D03*
X88080000Y-46736000D03*
%TD*%
D18*
%TO.C,D1*%
X36835000Y-57912000D03*
D19*
X34295000Y-57912000D03*
%TD*%
D20*
%TO.C,J4*%
X32044000Y-66531000D03*
D21*
X34544000Y-66531000D03*
X37044000Y-66531000D03*
%TD*%
D13*
%TO.C,C3*%
X32004000Y-49276000D03*
X34504000Y-49276000D03*
%TD*%
D22*
%TO.C,U1*%
X58846001Y-50012600D03*
X58196000Y-50012600D03*
X57545999Y-50012600D03*
X56896000Y-50012600D03*
X56246001Y-50012600D03*
X55596000Y-50012600D03*
X54946001Y-50012600D03*
X54945999Y-55651400D03*
X55596000Y-55651400D03*
X56245999Y-55651400D03*
X56896000Y-55651400D03*
X57545999Y-55651400D03*
X58196000Y-55651400D03*
X58845999Y-55651400D03*
%TD*%
M02*
